<svg width="100" height="34" viewBox="0 0 100 34" fill="none" xmlns="http://www.w3.org/2000/svg">
<path fill-rule="evenodd" clip-rule="evenodd" d="M96.7974 11.6832L92.8357 7.72182H85.4762V2.62674H79.2485V25.8348H85.4762V13.9471H90.5698V25.8348H96.7974V11.6832ZM76.9858 7.72182H67.3629L63.4004 11.6832V21.8716L67.3629 25.8348H76.9858V19.6089H69.6262V13.9471H76.9858V7.72182ZM61.1362 7.72182H56.0425V2.62674H49.8149V21.8716L53.7775 25.8348H61.1362V19.6089H56.0425V13.9471H61.1362V7.72182ZM47.5507 2.62674H41.3249V5.45792H47.5507V2.62674ZM47.5507 7.72182H41.3249V25.8345H47.5507V7.72182ZM39.0607 7.72182H32.8342V19.6089H30.5706V7.72182H24.3439V19.6089H22.0806V7.72182H15.853V25.8348H35.099L39.0607 21.8716V7.72182ZM13.5888 7.72182H8.49484V2.62674H2.26838V21.8716L6.23065 25.8348H13.5888V19.6089H8.49484V13.9471H13.5888V7.72182ZM99.0598 10.551V27.532L90.5698 33.1929H84.9097V30.3617L80.9475 33.1929H75.8539V30.3617L73.0244 33.1929H63.9674L61.1362 30.3617L60.5695 33.1929H52.6461L49.4059 30.3617L49.2244 33.1929H40.2434L39.9258 30.3617L37.4947 33.1929H23.7772L20.9466 32.0606V33.1929H13.5888L5.09782 28.0972L0.00390625 23.0053V0.363125H10.7593L15.853 5.45792H39.0607V0.363125H58.3059V5.45792H63.4004V8.28736L66.2316 5.45792H71.8907L76.9858 0.363125H87.7403V5.45792H93.9671L99.0598 10.551Z" fill="black"/>
</svg>
