<svg width="128" height="42" viewBox="0 0 128 42" fill="none" xmlns="http://www.w3.org/2000/svg">
<path fill-rule="evenodd" clip-rule="evenodd" d="M65.2998 8.34511C65.2998 5.70276 63.3042 4.27997 60.939 4.27997H55.2293V17.2145H58.1488V12.8168H60.6248C63.6553 12.8168 65.2998 10.7842 65.2998 8.34511ZM62.2509 8.52989C62.2509 9.63857 61.5303 10.3777 60.5509 10.3777H58.1304V6.71905H60.5509C61.5303 6.71905 62.2509 7.3473 62.2509 8.52989ZM72.9127 9.84182V6.99623H72.0257C71.0095 6.99623 70.0301 7.43969 69.5313 8.28968V6.99623H66.778V17.2145H69.6237V11.782C69.6237 10.3592 70.4551 9.82335 71.8595 9.82335C72.2475 9.82335 72.9127 9.84182 72.9127 9.84182ZM78.6963 17.3439C81.6528 17.3439 83.7593 15.5699 83.7593 12.1146C83.7593 8.64075 81.6528 6.86688 78.6963 6.86688C75.7583 6.86688 73.6518 8.64075 73.6518 12.1146C73.6518 15.5699 75.7583 17.3439 78.6963 17.3439ZM78.6963 9.17662C79.9347 9.17662 80.858 10.0081 80.858 12.1146C80.858 14.2026 79.9347 15.0341 78.6963 15.0341C77.4953 15.0341 76.5529 14.2026 76.5529 12.1146C76.5529 10.0081 77.4953 9.17662 78.6963 9.17662ZM90.7804 17.1775V14.8124C90.7804 14.8124 90.1342 14.8678 89.5426 14.8678C88.9328 14.8678 88.7478 14.7015 88.7478 14.0733V9.28748H90.9098V6.99623H88.7478V4.27997H85.8839V6.99623H84.4054V9.28748H85.8839V14.2211C85.8839 16.1243 86.161 17.2885 88.5445 17.2885C89.839 17.2885 90.7804 17.1775 90.7804 17.1775ZM96.6942 17.3439C99.6501 17.3439 101.757 15.5699 101.757 12.1146C101.757 8.64075 99.6501 6.86688 96.6942 6.86688C93.7555 6.86688 91.6491 8.64075 91.6491 12.1146C91.6491 15.5699 93.7555 17.3439 96.6942 17.3439ZM96.6942 9.17662C97.932 9.17662 98.8552 10.0081 98.8552 12.1146C98.8552 14.2026 97.932 15.0341 96.6942 15.0341C95.4929 15.0341 94.5504 14.2026 94.5504 12.1146C94.5504 10.0081 95.4929 9.17662 96.6942 9.17662ZM109.628 13.3527C109.443 14.5721 108.612 15.0341 107.707 15.0341C106.543 15.0341 105.619 14.2026 105.619 12.1146C105.619 10.0081 106.524 9.17662 107.743 9.17662C108.705 9.17662 109.443 9.65704 109.592 10.9135H112.456C112.215 8.21577 110.294 6.86688 107.725 6.86688C104.787 6.86688 102.681 8.69619 102.681 12.1516C102.681 15.6255 104.843 17.3439 107.781 17.3439C110.405 17.3439 112.179 15.995 112.474 13.3527H109.628ZM118.35 17.3439C121.306 17.3439 123.412 15.5699 123.412 12.1146C123.412 8.64075 121.306 6.86688 118.35 6.86688C115.411 6.86688 113.305 8.64075 113.305 12.1146C113.305 15.5699 115.411 17.3439 118.35 17.3439ZM118.35 9.17662C119.588 9.17662 120.512 10.0081 120.512 12.1146C120.512 14.2026 119.588 15.0341 118.35 15.0341C117.149 15.0341 116.206 14.2026 116.206 12.1146C116.206 10.0081 117.149 9.17662 118.35 9.17662ZM127.645 17.2145V3.54084H124.799V17.2145H127.645ZM64.3944 37.5402V34.9902H58.1488V24.6057H55.2293V37.5402H64.3944ZM72.0996 33.6229C72.0996 34.4914 71.5083 35.6 69.8268 35.6C68.7367 35.6 68.441 34.9164 68.441 34.4544C68.441 33.8077 68.94 33.4012 69.6237 33.2718C70.3258 33.124 72.0996 32.9023 72.0996 32.9023V33.6229ZM65.8541 30.6664H68.6074C68.6074 30.2599 68.7182 29.4099 70.3997 29.4099C71.767 29.4099 72.0996 29.8904 72.0996 30.5925V30.9436L68.7367 31.4241C67.7943 31.5534 65.5215 32.1262 65.5215 34.4544C65.5215 36.5055 67.0921 37.6695 69.1987 37.6695C70.9541 37.6695 71.7301 37.0783 72.1736 36.6163V37.5402H75.1855C75.1855 37.5402 74.9637 36.7642 74.9637 36.0251V30.5186C74.9637 29.0404 74.1508 27.1926 70.3997 27.1926C66.5193 27.1926 65.891 29.1698 65.8541 30.6664ZM79.6577 37.5402V36.5424C80.1744 37.1891 81.0794 37.6695 82.207 37.6695C84.9789 37.6695 86.882 35.8957 86.882 32.4404C86.882 28.9665 84.9414 27.1926 82.3739 27.1926C81.2463 27.1926 80.1744 27.673 79.6577 28.3197V23.8666H76.8116V37.5402H79.6577ZM81.8187 29.5024C83.0575 29.5024 83.9807 30.3338 83.9807 32.4404C83.9807 34.5283 83.0575 35.3598 81.8187 35.3598C80.4333 35.3598 79.6758 34.7132 79.6758 32.4404C79.6758 30.1491 80.4333 29.5024 81.8187 29.5024ZM93.9962 30.3523H96.7862C96.7862 29.5578 96.3797 27.1926 92.3883 27.1926C89.9491 27.1926 88.0096 28.2828 88.0096 30.3892C88.0096 32.773 89.931 33.2718 92.1294 33.5675L92.6835 33.6414C93.4784 33.7523 94.2177 33.9185 94.2177 34.5468C94.2177 35.2859 93.4228 35.5816 92.5177 35.5816C91.5389 35.5816 90.6702 35.2859 90.6702 34.3066H87.8063C87.8063 34.8425 88.046 37.6695 92.3519 37.6695C96.1765 37.6695 97.1008 35.8033 97.1008 34.2327C97.1008 30.1122 90.8553 31.7567 90.8553 30.186C90.8553 29.4839 91.6309 29.2621 92.3519 29.2621C93.3308 29.2621 93.9962 29.6501 93.9962 30.3523ZM19.517 30.4613C19.955 30.7136 20.3097 31.3316 20.3097 31.8352V40.5383C20.3097 41.0446 19.9522 41.2488 19.517 40.9965L11.9854 36.6506C11.5475 36.3973 11.1928 35.7793 11.1928 35.2758V26.5726C11.1928 26.0664 11.5503 25.8622 11.9854 26.1135L19.517 30.4613ZM31.1332 22.7838C31.1332 23.2892 30.7756 23.9062 30.3395 24.1576L22.8061 28.5064C22.3673 28.7595 22.0125 28.5516 22.0125 28.0481V19.3478C22.0125 18.8415 22.3701 18.2253 22.8061 17.973L30.3405 13.6243C30.7784 13.3711 31.1341 13.579 31.1341 14.0825L31.1332 22.7838ZM29.4785 11.2323C29.9238 11.4892 29.9276 11.9039 29.4906 12.1562L21.9534 16.5069C21.5146 16.76 20.7958 16.7554 20.3532 16.4994L2.02396 5.91988C1.57871 5.66211 1.57593 5.24728 2.01198 4.99599L9.55097 0.644435C9.98895 0.390363 10.7077 0.394983 11.1512 0.650903L29.4785 11.2323ZM9.49 34.2881C9.49 34.7953 9.13247 34.9995 8.69727 34.7482L1.16759 30.4022C0.728649 30.1491 0.373047 29.5245 0.373047 29.0127V7.85268C0.373047 7.33806 0.736994 7.13111 1.17957 7.38703L19.5041 17.9629C19.9494 18.2197 20.3097 18.8405 20.3097 19.345V28.0472C20.3097 28.5535 19.9494 28.7559 19.5152 28.5046L10.2855 23.1782C9.84667 22.9242 9.49095 23.134 9.49095 23.6374L9.49 34.2881ZM32.8276 13.105C32.8276 12.5978 33.1861 11.9806 33.6221 11.7284L41.1557 7.38056C41.5935 7.12742 41.9492 7.34176 41.9492 7.8536V29.0154C41.9492 29.5291 41.5861 30.1555 41.1427 30.4115L22.8191 40.9891C22.3737 41.246 22.0125 41.0418 22.0125 40.5383V31.8352C22.0125 31.3288 22.3728 30.7108 22.8071 30.4595L32.0322 25.1351C32.471 24.881 32.8267 24.2601 32.8267 23.7585L32.8285 13.106L32.8276 13.105ZM23.6505 5.90788C23.2117 5.65473 23.2145 5.24266 23.6505 4.99137L31.1868 0.641663C31.6257 0.388515 32.3389 0.389439 32.7749 0.641663L40.3112 4.99229C40.75 5.24543 40.7472 5.6575 40.3112 5.90879L32.7749 10.2594C32.3371 10.5126 31.6237 10.5107 31.1877 10.2594L23.6505 5.90788Z" fill="black"/>
</svg>
