<svg width="131" height="30" viewBox="0 0 131 30" fill="none" xmlns="http://www.w3.org/2000/svg">
<path d="M41.2215 4.8691C40.7471 3.09671 39.3541 1.70387 37.5817 1.22943C34.3726 0.368653 21.4981 0.368652 21.4981 0.368652C21.4981 0.368652 8.62377 0.368653 5.41449 1.22943C3.64212 1.70387 2.24928 3.09671 1.77484 4.8691C0.914063 8.07836 0.914062 14.7782 0.914062 14.7782C0.914062 14.7782 0.914063 21.4781 1.77484 24.6874C2.24928 26.4597 3.64212 27.8526 5.41449 28.3269C8.62377 29.1877 21.4981 29.1877 21.4981 29.1877C21.4981 29.1877 34.3726 29.1877 37.5817 28.3269C39.3541 27.8526 40.7471 26.4597 41.2215 24.6874C42.0823 21.4781 42.0823 14.7782 42.0823 14.7782C42.0823 14.7782 42.0788 8.07836 41.2215 4.8691Z" fill="black"/>
<path d="M17.377 20.9531L28.0723 14.7786L17.377 8.604V20.9531Z" fill="white"/>
<path d="M50.7748 19.1058L46.1523 2.41211H50.1851L51.8051 9.97948C52.2185 11.8434 52.5201 13.4328 52.7166 14.7476H52.8352C52.9708 13.8055 53.2758 12.2263 53.7469 10.0066L55.4243 2.41211H59.4571L54.777 19.1058V27.1137H50.7715V19.1058H50.7748Z" fill="black"/>
<path d="M60.6715 26.5849C59.8582 26.0359 59.2786 25.1819 58.933 24.0229C58.5907 22.864 58.418 21.3254 58.418 19.4005V16.7808C58.418 14.839 58.6145 13.2768 59.0076 12.1008C59.4007 10.9249 60.0141 10.0641 60.8477 9.52528C61.6814 8.98645 62.776 8.71533 64.1316 8.71533C65.4668 8.71533 66.5343 8.98983 67.3408 9.53884C68.144 10.0878 68.7336 10.9486 69.1064 12.1144C69.4792 13.2835 69.6656 14.839 69.6656 16.7808V19.4005C69.6656 21.3254 69.4826 22.8707 69.1201 24.0365C68.7574 25.2056 68.1678 26.0597 67.3543 26.5985C66.5411 27.1374 65.4363 27.4084 64.0435 27.4084C62.6065 27.4117 61.4849 27.1339 60.6715 26.5849ZM65.233 23.7586C65.4566 23.169 65.5719 22.2099 65.5719 20.8747V15.2525C65.5719 13.9579 65.4601 13.009 65.233 12.4126C65.0059 11.8128 64.6095 11.5146 64.04 11.5146C63.4911 11.5146 63.1014 11.8128 62.8777 12.4126C62.6506 13.0124 62.5388 13.9579 62.5388 15.2525V20.8747C62.5388 22.2099 62.6472 23.1723 62.8642 23.7586C63.081 24.3483 63.4707 24.6431 64.04 24.6431C64.6095 24.6431 65.0059 24.3483 65.233 23.7586Z" fill="black"/>
<path d="M82.7839 27.1176H79.6052L79.2527 24.908H79.1647C78.3004 26.5753 77.0058 27.4089 75.2775 27.4089C74.0813 27.4089 73.1968 27.0158 72.6275 26.2331C72.0582 25.4468 71.7734 24.2201 71.7734 22.5528V9.06833H75.8368V22.3154C75.8368 23.1221 75.9248 23.6947 76.1011 24.0371C76.2773 24.3793 76.5721 24.5521 76.9855 24.5521C77.338 24.5521 77.6769 24.4437 78.0023 24.2269C78.3276 24.0099 78.5648 23.7354 78.724 23.4034V9.06494H82.7839V27.1176Z" fill="black"/>
<path d="M93.8201 5.68193H89.7873V27.1166H85.8121V5.68193H81.7793V2.41504H93.8201V5.68193Z" fill="black"/>
<path d="M103.62 27.1176H100.441L100.089 24.908H100.001C99.1365 26.5753 97.8419 27.4089 96.1135 27.4089C94.9172 27.4089 94.0328 27.0158 93.4634 26.2331C92.8941 25.4468 92.6094 24.2201 92.6094 22.5528V9.06833H96.6727V22.3154C96.6727 23.1221 96.7608 23.6947 96.937 24.0371C97.1132 24.3793 97.408 24.5521 97.8216 24.5521C98.1739 24.5521 98.5128 24.4437 98.8382 24.2269C99.1636 24.0099 99.4007 23.7354 99.56 23.4034V9.06494H103.62V27.1176Z" fill="black"/>
<path d="M117.067 11.9518C116.82 10.8132 116.423 9.98965 115.874 9.47792C115.325 8.96621 114.57 8.71204 113.607 8.71204C112.862 8.71204 112.164 8.92215 111.516 9.34576C110.869 9.76937 110.367 10.3218 110.015 11.0097H109.985V1.50049H106.07V27.1137H109.425L109.839 25.4057H109.927C110.242 26.0157 110.713 26.4935 111.34 26.8494C111.967 27.2019 112.665 27.3781 113.431 27.3781C114.804 27.3781 115.817 26.7444 116.464 25.4802C117.111 24.2128 117.437 22.2371 117.437 19.5464V16.6895C117.437 14.6731 117.311 13.0905 117.067 11.9518ZM113.343 19.3158C113.343 20.6307 113.289 21.661 113.18 22.4065C113.072 23.1521 112.892 23.6842 112.635 23.9959C112.38 24.311 112.035 24.4669 111.604 24.4669C111.269 24.4669 110.96 24.389 110.676 24.2298C110.391 24.0738 110.161 23.8367 109.985 23.5248V13.2803C110.12 12.7889 110.357 12.389 110.693 12.0738C111.025 11.7587 111.391 11.6028 111.781 11.6028C112.194 11.6028 112.513 11.7654 112.736 12.0874C112.963 12.4127 113.119 12.9549 113.207 13.7208C113.295 14.4867 113.339 15.5745 113.339 16.9877V19.3158H113.343Z" fill="black"/>
<path d="M123.202 20.3562C123.202 21.5152 123.236 22.3828 123.304 22.9623C123.372 23.5417 123.514 23.962 123.731 24.2298C123.948 24.4941 124.28 24.6262 124.731 24.6262C125.337 24.6262 125.757 24.389 125.981 23.918C126.208 23.4469 126.33 22.6607 126.351 21.5627L129.855 21.7693C129.875 21.9253 129.885 22.1421 129.885 22.4166C129.885 24.084 129.428 25.3311 128.516 26.1546C127.604 26.9781 126.313 27.3915 124.646 27.3915C122.643 27.3915 121.24 26.7646 120.437 25.5073C119.63 24.2501 119.23 22.3083 119.23 19.6784V16.5267C119.23 13.8191 119.647 11.8399 120.481 10.5928C121.315 9.34573 122.741 8.72217 124.764 8.72217C126.157 8.72217 127.228 8.97634 127.974 9.48806C128.719 9.99978 129.245 10.7928 129.55 11.8738C129.855 12.9549 130.007 14.446 130.007 16.3505V19.4412H123.202V20.3562ZM123.717 11.8501C123.511 12.1043 123.375 12.5211 123.304 13.1006C123.236 13.6801 123.202 14.5578 123.202 15.7372V17.0318H126.174V15.7372C126.174 14.5782 126.134 13.7004 126.056 13.1006C125.978 12.5008 125.835 12.0806 125.629 11.8332C125.422 11.5892 125.103 11.4638 124.673 11.4638C124.239 11.4672 123.921 11.596 123.717 11.8501Z" fill="black"/>
</svg>
