<svg width="180" height="37" viewBox="0 0 180 37" fill="none" xmlns="http://www.w3.org/2000/svg">
<path fill-rule="evenodd" clip-rule="evenodd" d="M18.5714 8.95494L11.6087 15.9174L7.55729 11.866L18.5714 0.851562L29.5893 11.8697L25.5379 15.9211L18.5714 8.95494ZM4.69606 14.7261L8.7474 18.7775L4.69587 22.829L0.644531 18.7777L4.69606 14.7261ZM11.6089 21.639L18.5716 28.6014L25.5378 21.6356L29.5915 25.6847L29.5895 25.687L18.5716 36.7048L7.55722 25.6906L7.55156 25.685L11.6089 21.639ZM36.4987 18.7795L32.4472 22.831L28.3959 18.7797L32.4474 14.7281L36.4987 18.7795ZM22.6807 18.7761H22.6824L18.5713 14.6649L15.5331 17.7031H15.5328L15.1839 18.0523L14.4638 18.7724L14.4581 18.778L14.4638 18.784L18.5713 22.8915L22.6824 18.7803L22.6844 18.778L22.6807 18.7761ZM51.6256 9.53903H42.814V28.5512H51.8434C52.9096 28.5512 53.8811 28.4427 54.7579 28.2255C55.6346 28.0081 56.3847 27.6824 57.0085 27.2477C57.6324 26.8131 58.1115 26.2696 58.4459 25.6181C58.7804 24.9659 58.9475 24.2056 58.9475 23.3362V23.2821C58.9475 22.0149 58.6317 21.0235 58.0011 20.3079C57.3702 19.5926 56.5048 19.0271 55.4055 18.6103C55.7473 18.4296 56.0664 18.2122 56.3635 17.9584C56.6602 17.7053 56.9213 17.411 57.1459 17.0758C57.371 16.7408 57.5511 16.3656 57.6859 15.9487C57.821 15.5325 57.8881 15.0525 57.8881 14.5093V14.455C57.8881 13.1696 57.4545 12.0921 56.5872 11.2228C55.4664 10.1003 53.8126 9.53903 51.6256 9.53903ZM52.9447 16.7501C52.4018 17.0673 51.6684 17.2253 50.7447 17.2253H46.8878V13.2056H51.0163C51.9032 13.2056 52.5822 13.3732 53.0531 13.7082C53.5238 14.0435 53.7594 14.5277 53.7594 15.1612V15.2156C53.7594 15.9215 53.4878 16.4332 52.9447 16.7501ZM54.0312 24.3826C53.5056 24.7178 52.7819 24.8849 51.8584 24.8849L46.8878 24.8852V20.7024H51.7225C52.809 20.7024 53.5965 20.8882 54.0856 21.2588C54.5744 21.6304 54.819 22.1327 54.819 22.7665V22.8206C54.819 23.5268 54.5562 24.0476 54.0312 24.3826ZM64.1954 9.53903H68.3785V28.5518H64.1954V9.53903ZM78.5704 9.53903H74.7141V28.5518H78.8423V16.4652L88.0501 28.5518H91.6079V9.53903H87.4795V21.2455L78.5704 9.53903ZM104.272 9.4035H108.128L116.277 28.5519H111.904L110.165 24.2878H102.126L100.387 28.5519H96.1226L104.272 9.4035ZM108.672 20.5935L106.145 14.4282L103.62 20.5935H108.672ZM124.649 9.53903H120.792V28.5518H124.92V16.4652L134.128 28.5518H137.686V9.53903H133.557V21.2455L124.649 9.53903ZM152.74 28.8776C151.345 28.8776 150.051 28.6239 148.855 28.1173C147.66 27.6107 146.628 26.9178 145.759 26.0394C144.89 25.1612 144.21 24.1245 143.722 22.9295C143.233 21.7342 142.989 20.4577 142.989 19.0996V19.0455C142.989 17.6874 143.233 16.4156 143.722 15.2294C144.211 14.0435 144.89 13.0022 145.759 12.106C146.628 11.2097 147.669 10.5032 148.882 9.98723C150.095 9.47129 151.436 9.21331 152.903 9.21331C153.789 9.21331 154.599 9.28609 155.333 9.43051C156.066 9.57578 156.731 9.77457 157.329 10.028C157.927 10.2817 158.479 10.5895 158.987 10.9514C159.493 11.3139 159.964 11.7121 160.399 12.1467L157.737 15.2158C156.994 14.5461 156.238 14.0205 155.469 13.6405C154.699 13.2605 153.835 13.0702 152.875 13.0702C152.078 13.0702 151.34 13.2242 150.662 13.532C149.983 13.8398 149.399 14.2652 148.909 14.8083C148.421 15.3514 148.041 15.9809 147.769 16.696C147.498 17.4115 147.362 18.1764 147.362 18.9911V19.0452C147.362 19.8599 147.498 20.6298 147.769 21.3536C148.041 22.0783 148.416 22.7118 148.896 23.2549C149.376 23.798 149.955 24.2285 150.634 24.5453C151.314 24.8625 152.06 25.0205 152.875 25.0205C153.962 25.0205 154.88 24.8214 155.632 24.423C156.383 24.0251 157.13 23.4817 157.873 22.7933L160.534 25.4824C160.045 26.0077 159.538 26.4786 159.013 26.8946C158.488 27.3114 157.913 27.6688 157.288 27.9678C156.664 28.2663 155.98 28.4931 155.238 28.6466C154.495 28.8003 153.663 28.8776 152.74 28.8776ZM179.771 9.53903H165.457V28.5518H179.907V24.8308H169.586V20.838H178.549V17.1171H169.586V13.2602H179.771V9.53903Z" fill="black"/>
</svg>
