<svg width="183" height="47" viewBox="0 0 183 47" fill="none" xmlns="http://www.w3.org/2000/svg">
<path fill-rule="evenodd" clip-rule="evenodd" d="M25.2684 0C24.7022 0 24.2421 0.460066 24.2421 1.0263C24.2421 1.59254 24.7022 2.0526 25.2684 2.0526C25.8347 2.0526 26.2947 1.59254 26.2947 1.0263C26.2947 0.460066 25.8347 0 25.2684 0ZM19.5705 1.55709C19.5705 0.884688 20.1013 0.353843 20.7737 0.353843C21.4107 0.353843 21.9062 0.884688 21.9416 1.59248C21.9416 2.2295 21.4107 2.76034 20.7737 2.76034C20.1013 2.76034 19.5705 2.2295 19.5705 1.55709ZM15.9603 1.62793C15.2171 1.62793 14.5801 2.22955 14.5801 3.00813C14.5801 3.75131 15.1817 4.38832 15.9603 4.38832C16.7035 4.38832 17.3405 3.7867 17.3405 3.00813C17.3051 2.26494 16.7035 1.62793 15.9603 1.62793ZM9.34246 5.83928C9.34246 4.88375 10.121 4.14057 11.0412 4.14057C11.9967 4.14057 12.7399 4.91914 12.7399 5.83928C12.7399 6.7948 11.9613 7.53798 11.0412 7.53798C10.0856 7.53798 9.34246 6.75941 9.34246 5.83928ZM6.68883 8.31657C5.98103 8.31657 5.30863 8.67046 4.95473 9.30748C4.60084 9.9091 4.60084 10.6877 4.95473 11.2893C5.30863 11.8909 5.98103 12.2802 6.68883 12.2802C7.75052 12.2448 8.63526 11.3955 8.63526 10.2984C8.59987 9.2367 7.75052 8.35196 6.68883 8.31657ZM1.69856 14.7928C2.12323 14.085 2.90181 13.6604 3.75116 13.6604C4.9898 13.6958 6.0161 14.7221 6.0161 15.9607C6.0161 17.1993 5.02519 18.2256 3.75116 18.261C2.90181 18.2964 2.12323 17.8364 1.69856 17.1286C1.27388 16.4208 1.27388 15.5006 1.69856 14.7928ZM2.68962 20.4552C1.20325 20.4552 0 21.6584 0 23.1448C0 24.6312 1.20325 25.8344 2.68962 25.8344C4.17598 25.8344 5.37923 24.6312 5.37923 23.1448C5.34384 21.6584 4.17598 20.4552 2.68962 20.4552ZM1.69856 29.0903C2.12323 28.3825 2.90181 27.9224 3.75116 27.9578C4.9898 27.9932 6.0161 29.0195 6.0161 30.2581C6.0161 31.4968 5.02519 32.5231 3.75116 32.5585C2.90181 32.5938 2.12323 32.1338 1.69856 31.426C1.27388 30.7182 1.27388 29.7981 1.69856 29.0903ZM46.8203 27.9578C45.971 27.9578 45.1924 28.3825 44.7677 29.0903C44.343 29.798 44.343 30.7182 44.7677 31.426C45.1924 32.1338 45.971 32.5938 46.8203 32.5584C48.0944 32.5231 49.0853 31.4968 49.0853 30.2581C49.1207 29.0195 48.0944 27.9932 46.8203 27.9578ZM43.8829 33.9741C42.7858 33.9741 41.901 34.8588 41.901 35.9205C41.901 37.0176 42.7858 37.9023 43.8829 37.9023C44.9799 37.9023 45.8647 37.0176 45.8647 35.9205C45.8647 34.8588 44.9799 33.9741 43.8829 33.9741ZM41.2262 40.3208C41.2575 41.2584 40.5227 42.0438 39.5851 42.0751C38.6475 42.1063 37.8621 41.3715 37.8309 40.4339C37.7997 39.4963 38.5344 38.7109 39.472 38.6797C40.4096 38.6485 41.195 39.3832 41.2262 40.3208ZM34.6107 41.8659C33.8321 41.8659 33.2305 42.4676 33.2305 43.2461C33.2305 44.0247 33.8321 44.6263 34.6107 44.6263C35.3893 44.6263 35.9909 44.0247 35.9909 43.2461C35.9909 42.4676 35.3893 41.8659 34.6107 41.8659ZM28.6304 44.6972C28.6304 44.0601 29.1612 43.5293 29.7982 43.5293C30.4706 43.5293 31.0015 44.0601 30.9661 44.6972C30.9661 45.3342 30.4352 45.865 29.7982 45.865C29.1612 45.865 28.6304 45.3342 28.6304 44.6972ZM25.3037 44.2017C24.7375 44.2017 24.2774 44.6617 24.2774 45.228C24.2774 45.7942 24.7375 46.2543 25.3037 46.2543C25.87 46.2543 26.33 45.7942 26.33 45.228C26.2947 44.6617 25.8346 44.2017 25.3037 44.2017ZM19.6058 44.6972C19.6058 44.0601 20.1366 43.5293 20.7737 43.5293C21.4107 43.5293 21.9415 44.0601 21.9415 44.6972C21.9415 45.3342 21.4107 45.865 20.7737 45.865C20.1366 45.865 19.6058 45.3342 19.6058 44.6972ZM15.9607 41.8306C15.4653 41.8306 15.0052 42.0783 14.7575 42.503C14.5097 42.9277 14.5097 43.4585 14.7575 43.8832C15.0052 44.3079 15.4653 44.5556 15.9607 44.5556C16.7039 44.5556 17.3409 43.954 17.3409 43.1754C17.3055 42.4676 16.7039 41.866 15.9607 41.8306ZM9.55527 39.5303C9.87378 38.9994 10.44 38.6809 11.0416 38.6809C11.9972 38.6809 12.7403 39.4595 12.7403 40.3796C12.7403 41.3352 11.9618 42.0783 11.0416 42.0783C10.4046 42.0783 9.87378 41.7598 9.55527 41.229C9.23676 40.6981 9.23676 40.0611 9.55527 39.5303ZM6.68879 33.9741C5.59171 33.9741 4.70697 34.8588 4.70697 35.9559C4.70697 37.053 5.59171 37.9377 6.68879 37.9377C7.78587 37.9377 8.67062 37.053 8.67062 35.9559C8.63523 34.8588 7.78587 33.9741 6.68879 33.9741ZM28.6304 1.5217C28.6304 0.884688 29.1612 0.353843 29.7982 0.353843C30.4706 0.353843 31.0015 0.884688 30.9661 1.5217C30.9661 2.15872 30.4352 2.68956 29.7982 2.68956C29.1612 2.68956 28.6304 2.15872 28.6304 1.5217ZM34.6112 1.62793C34.1157 1.62793 33.6556 1.87566 33.4079 2.30033C33.1602 2.72501 33.1602 3.25585 33.4079 3.68053C33.6556 4.10521 34.1157 4.35293 34.6112 4.35293C35.3543 4.35293 35.9914 3.75131 35.9914 2.97274C35.9914 2.19416 35.3897 1.62793 34.6112 1.62793ZM37.8315 5.8747C37.8315 4.91918 38.6101 4.176 39.5302 4.176C40.4504 4.176 41.2289 4.91918 41.2289 5.8747C41.2289 6.83022 40.4504 7.57341 39.5302 7.57341C38.5747 7.57341 37.8315 6.79483 37.8315 5.8747ZM43.8829 8.31657C42.7858 8.31657 41.901 9.20131 41.901 10.2984C41.901 11.3955 42.7858 12.2802 43.8829 12.2802C44.9799 12.2802 45.8647 11.3955 45.8647 10.2984C45.8647 9.20131 44.9799 8.31657 43.8829 8.31657ZM44.7677 14.7928C45.1924 14.085 45.971 13.6604 46.8203 13.6604C48.0944 13.6604 49.0853 14.6867 49.0853 15.9607C49.0853 17.1993 48.0944 18.2256 46.8203 18.261C45.971 18.2964 45.1924 17.8364 44.7677 17.1286C44.343 16.4208 44.343 15.5006 44.7677 14.7928ZM36.2042 26.6484C35.8149 26.6484 35.461 26.8253 35.284 27.1438C35.1071 27.4623 35.1071 27.887 35.284 28.2055C35.461 28.524 35.8149 28.7364 36.2042 28.701C36.7704 28.6656 37.1951 28.2055 37.1951 27.6747C37.2305 27.1438 36.7704 26.6838 36.2042 26.6484ZM32.7005 31.0013C32.8775 30.6828 33.2314 30.5059 33.6207 30.5059C34.1869 30.5412 34.6116 31.0013 34.6116 31.5322C34.6116 32.063 34.1869 32.5231 33.6207 32.5585C33.2668 32.5938 32.8775 32.3815 32.7005 32.063C32.5236 31.7445 32.5236 31.3198 32.7005 31.0013ZM29.762 32.9831C29.3727 32.9831 28.9835 33.1954 28.7711 33.5493C28.5588 33.9032 28.5588 34.3279 28.7711 34.6818C28.9835 35.0357 29.3373 35.248 29.762 35.248C30.399 35.248 30.8945 34.7526 30.8945 34.1155C30.8945 33.4785 30.399 32.9831 29.762 32.9831ZM23.7115 35.1773C23.7115 34.3279 24.3839 33.6555 25.2332 33.6555C26.0472 33.6555 26.7196 34.3279 26.755 35.1773C26.755 36.0266 26.0826 36.6991 25.2332 36.6991C24.3839 36.6991 23.7115 36.0266 23.7115 35.1773ZM20.6679 32.7354C19.7124 32.7354 18.9338 33.514 18.9338 34.4695C18.9338 35.425 19.7124 36.2036 20.6679 36.2036C21.6235 36.2036 22.402 35.425 22.402 34.4695C22.402 33.514 21.6235 32.7354 20.6679 32.7354ZM14.6507 31.7445C14.6507 30.6828 15.5001 29.8335 16.5618 29.8335C17.6235 29.8335 18.4728 30.6828 18.4728 31.7445C18.4728 32.8062 17.6235 33.6556 16.5618 33.6556C15.5001 33.6556 14.6507 32.8062 14.6507 31.7445ZM13.8372 25.9406C12.9525 25.9406 12.2447 26.6484 12.2447 27.5331C12.2447 28.4179 12.9525 29.1257 13.8372 29.1257C14.722 29.1257 15.4298 28.4179 15.4298 27.5331C15.4651 26.6838 14.722 25.9406 13.8372 25.9406ZM11.9613 22.9326C11.9613 22.2602 12.5275 21.6939 13.1999 21.6939C13.9077 21.6939 14.4386 22.2248 14.4386 22.9326C14.4386 23.605 13.8723 24.1712 13.1999 24.1712C12.5275 24.1712 11.9613 23.605 11.9613 22.9326ZM14.297 17.5178C13.7307 17.5178 13.2707 17.9779 13.2707 18.5441C13.2707 19.1104 13.7307 19.5704 14.297 19.5704C14.8632 19.5704 15.3233 19.1104 15.3233 18.5441C15.3587 17.9779 14.8632 17.5178 14.297 17.5178ZM15.9961 14.1911C16.1731 13.8726 16.527 13.6957 16.9163 13.6957C17.4471 13.6957 17.9072 14.1558 17.9426 14.722C17.9426 15.2882 17.4825 15.7483 16.9163 15.7483C16.5624 15.7837 16.1731 15.5713 15.9961 15.2528C15.8192 14.9343 15.8192 14.5097 15.9961 14.1911ZM20.7383 11.0061C20.1012 11.0061 19.6058 11.5016 19.6058 12.1386C19.6058 12.7756 20.1012 13.2711 20.7383 13.2711C21.3753 13.2711 21.8707 12.7756 21.8707 12.1386C21.8707 11.537 21.3753 11.0061 20.7383 11.0061ZM25.3548 9.53765C26.1947 9.5699 26.8494 10.2769 26.8171 11.1167C26.7849 11.9566 26.0779 12.6113 25.238 12.579C24.3982 12.5468 23.7435 11.8398 23.7758 10.9999C23.808 10.1601 24.515 9.50539 25.3548 9.53765ZM29.8338 10.0507C28.8783 10.0507 28.0997 10.8292 28.0997 11.7848C28.0997 12.7403 28.8783 13.5189 29.8338 13.5189C30.7893 13.5189 31.5679 12.7403 31.5679 11.7848C31.5679 10.8292 30.7893 10.0507 29.8338 10.0507ZM32.0279 14.5097C32.0279 13.448 32.8773 12.5986 33.939 12.5986C35.0007 12.5986 35.85 13.448 35.85 14.5097C35.85 15.5714 35.0007 16.4207 33.939 16.4207C32.8773 16.4207 32.0279 15.5714 32.0279 14.5097ZM36.664 17.0932C35.7792 17.0932 35.0714 17.8009 35.0714 18.6857C35.0714 19.5704 35.7792 20.2782 36.664 20.2782C37.5487 20.2782 38.2565 19.5704 38.2565 18.6857C38.2565 17.8009 37.5487 17.0932 36.664 17.0932ZM33.4428 25.0913C33.4428 25.619 33.015 26.0468 32.4873 26.0468C31.9595 26.0468 31.5317 25.619 31.5317 25.0913C31.5317 24.5635 31.9595 24.1357 32.4873 24.1357C33.015 24.1357 33.4428 24.5635 33.4428 25.0913ZM30.6119 27.1085C29.8334 27.1085 29.1963 27.7455 29.1963 28.5241C29.1963 29.3027 29.8334 29.9397 30.6119 29.9397C31.3905 29.9397 32.0275 29.3027 32.0275 28.5241C32.0629 27.7455 31.4259 27.1085 30.6119 27.1085ZM25.4809 30.5059C25.4809 29.6919 26.1533 29.0195 26.9673 29.0195C27.7812 29.0195 28.4536 29.6919 28.4536 30.5059C28.4536 31.3199 27.7812 31.9923 26.9673 31.9923C26.1533 31.9923 25.4809 31.3199 25.4809 30.5059ZM22.6489 28.9132C22.1888 28.9132 21.7288 29.161 21.5164 29.5857C21.2687 30.0103 21.2687 30.5058 21.5164 30.8951C21.7642 31.3197 22.1888 31.5675 22.6489 31.5675C23.3921 31.5675 23.9583 30.9658 23.9583 30.2581C23.9937 29.5149 23.3921 28.9132 22.6489 28.9132ZM18.5083 27.7101C18.5083 27.1792 18.933 26.7546 19.4638 26.7546C19.9947 26.7546 20.4547 27.2146 20.4194 27.7101C20.4194 28.2409 19.9947 28.6656 19.4638 28.6656C18.933 28.6656 18.5083 28.2409 18.5083 27.7101ZM18.191 23.9587C17.8017 23.9587 17.4832 24.2772 17.4832 24.6665C17.4832 25.0558 17.8017 25.3743 18.191 25.3743C18.5802 25.3743 18.8987 25.0558 18.8987 24.6665C18.8987 24.2772 18.5802 23.9587 18.191 23.9587ZM17.1636 21.2692C17.1636 20.7384 17.5883 20.3137 18.1191 20.3137C18.65 20.3137 19.0746 20.7384 19.0746 21.2692C19.0746 21.8001 18.65 22.2247 18.1191 22.2247C17.5883 22.2247 17.1636 21.8001 17.1636 21.2692ZM19.9945 16.3855C19.216 16.3855 18.579 17.0225 18.579 17.8011C18.579 18.5796 19.216 19.2166 19.9945 19.2166C20.7731 19.2166 21.4101 18.5796 21.4101 17.8011C21.4101 17.0225 20.7731 16.3855 19.9945 16.3855ZM22.154 15.8191C22.154 15.0051 22.8264 14.3327 23.6403 14.3327C24.4543 14.3327 25.1267 15.0051 25.1267 15.8191C25.1267 16.6331 24.4543 17.3055 23.6403 17.3055C22.8264 17.3055 22.154 16.6331 22.154 15.8191ZM27.9581 14.7929C27.4626 14.7929 27.038 15.0406 26.7902 15.4299C26.5425 15.8545 26.5425 16.35 26.7902 16.7747C27.038 17.1994 27.498 17.4471 27.9581 17.4117C28.6659 17.3763 29.2321 16.8101 29.2321 16.1023C29.2321 15.3945 28.6659 14.8282 27.9581 14.7929ZM30.1517 18.5795C30.1517 18.0487 30.5764 17.624 31.1072 17.624C31.6735 17.624 32.0981 18.0487 32.0627 18.5795C32.0627 19.1104 31.6381 19.5351 31.1072 19.5351C30.5764 19.5351 30.1517 19.1104 30.1517 18.5795ZM32.4523 20.9861C32.063 20.9861 31.7445 21.3046 31.7445 21.6938C31.7445 22.0831 32.063 22.4016 32.4523 22.4016C32.8416 22.4016 33.1601 22.0831 33.1601 21.6938C33.1601 21.3046 32.8416 20.9861 32.4523 20.9861ZM36.0621 23.3218C36.0621 22.6493 36.6283 22.0831 37.3008 22.0831C37.9732 22.0831 38.5394 22.6493 38.5394 23.3218C38.5394 23.9942 37.9732 24.5604 37.3008 24.5604C36.6283 24.5604 36.0621 23.9942 36.0621 23.3218ZM42.4326 23.6049C41.6894 23.6049 41.1231 24.2065 41.1231 24.9143C41.1231 25.6575 41.7248 26.2237 42.4326 26.2237C43.1757 26.2237 43.742 25.6221 43.742 24.9143C43.742 24.2065 43.1757 23.6049 42.4326 23.6049ZM39.8844 29.4795C39.8844 28.8071 40.4506 28.2409 41.123 28.2409C41.8308 28.2409 42.3616 28.8071 42.3616 29.4795C42.3616 30.1519 41.7954 30.7182 41.123 30.7182C40.4506 30.7182 39.8844 30.1519 39.8844 29.4795ZM38.8932 32.1338C38.327 32.1338 37.8315 32.5939 37.8315 33.1955C37.8315 33.7617 38.2916 34.2572 38.8932 34.2572C39.4595 34.2572 39.9195 33.7617 39.9195 33.1955C39.9195 32.6292 39.4595 32.1692 38.8932 32.1338ZM35.39 35.4958C35.567 35.2126 35.8855 35.0357 36.204 35.0357C36.6994 35.0357 37.1241 35.4604 37.1241 35.9558C37.1241 36.4867 36.6994 36.876 36.204 36.876C35.8501 36.876 35.567 36.699 35.39 36.4159C35.2131 36.1328 35.2131 35.7789 35.39 35.4958ZM33.3725 37.1591C32.9478 37.1591 32.5939 37.513 32.5939 37.9376C32.5939 38.3623 32.9478 38.7162 33.3725 38.7162C33.7972 38.7162 34.1511 38.3623 34.1511 37.9376C34.1511 37.513 33.7972 37.1591 33.3725 37.1591ZM29.2317 39.2825C29.2317 38.7517 29.6563 38.3624 30.1518 38.3624C30.6472 38.3624 31.0365 38.7517 31.0719 39.2825C31.0719 39.8134 30.6472 40.2027 30.1518 40.2027C29.6209 40.2027 29.2317 39.778 29.2317 39.2825ZM26.3651 38.964C25.7989 38.964 25.3034 39.4241 25.3034 40.0257C25.3034 40.5919 25.7635 41.0874 26.3651 41.0874C26.9314 41.0874 27.4268 40.6273 27.4268 40.0257C27.3914 39.4241 26.9314 38.964 26.3651 38.964ZM20.7033 39.8841C20.7033 39.1409 21.3049 38.5393 22.0481 38.5393C22.7913 38.5393 23.3929 39.1409 23.3929 39.8841C23.3929 40.6273 22.7913 41.2289 22.0481 41.2289C21.3049 41.2289 20.7033 40.6273 20.7033 39.8841ZM17.482 36.9114C16.5973 36.9114 15.8895 37.6192 15.8895 38.5039C15.8895 39.3887 16.5973 40.0965 17.482 40.0965C18.3668 40.0965 19.0746 39.3887 19.0746 38.5039C19.11 37.6192 18.3668 36.9114 17.482 36.9114ZM11.8205 34.7879C12.1744 34.2217 12.8114 33.8678 13.4838 33.8678C14.5101 33.9032 15.3241 34.7525 15.3241 35.7434C15.3241 36.7697 14.5101 37.5837 13.4838 37.6191C12.8114 37.6545 12.1744 37.3006 11.8205 36.699C11.4666 36.0973 11.4666 35.3895 11.8205 34.7879ZM10.1218 29.338C8.98935 29.338 8.06921 30.2582 8.06921 31.3906C8.06921 32.5231 8.98935 33.4432 10.1218 33.4432C11.2543 33.4432 12.1744 32.5231 12.1744 31.3906C12.1744 30.2228 11.2543 29.338 10.1218 29.338ZM8.3403 24.5826C9.23713 24.6464 9.91249 25.4251 9.84876 26.3219C9.78502 27.2187 9.00633 27.8941 8.1095 27.8304C7.21267 27.7666 6.53731 26.9879 6.60105 26.0911C6.66478 25.1943 7.44347 24.5189 8.3403 24.5826ZM9.43199 21.3841C9.47198 20.662 8.91903 20.0442 8.19694 20.0042C7.47486 19.9642 6.85707 20.5172 6.81708 21.2392C6.77709 21.9613 7.33004 22.5791 8.05212 22.6191C8.77421 22.6591 9.392 22.1062 9.43199 21.3841ZM8.2105 16.7393C8.2105 16.0669 8.77673 15.5006 9.44914 15.5006C10.1215 15.5006 10.6878 16.0669 10.6878 16.7393C10.6878 17.4117 10.1215 17.9779 9.44914 17.9779C8.77673 17.9779 8.2105 17.4117 8.2105 16.7393ZM11.6786 11.9971C11.2894 11.9971 10.9355 12.1741 10.7585 12.528C10.5816 12.8465 10.5816 13.2712 10.7585 13.5897C10.9355 13.9082 11.3247 14.1205 11.6786 14.1205C12.2449 14.1205 12.7049 13.625 12.7049 13.0588C12.7049 12.4572 12.2449 11.9971 11.6786 11.9971ZM13.4481 10.2984C13.4481 9.76759 13.8728 9.37831 14.3683 9.37831C14.8637 9.37831 15.2884 9.80298 15.2884 10.2984C15.2884 10.8293 14.8991 11.2186 14.3683 11.2186C13.8374 11.2186 13.4481 10.7939 13.4481 10.2984ZM17.1996 7.53803C16.7749 7.53803 16.421 7.89193 16.421 8.3166C16.421 8.74128 16.7749 9.09518 17.1996 9.09518C17.6242 9.09518 17.9781 8.74128 17.9781 8.3166C17.9781 7.85654 17.6242 7.53803 17.1996 7.53803ZM19.4998 7.00715C19.4998 6.47631 19.9245 6.08702 20.42 6.08702C20.9154 6.08702 21.3401 6.47631 21.3401 7.00715C21.3401 7.538 20.9154 7.92728 20.42 7.92728C19.8891 7.92728 19.4998 7.50261 19.4998 7.00715ZM24.2067 5.16678C23.8174 5.16678 23.4636 5.34373 23.2866 5.69762C23.1097 6.01613 23.1097 6.44081 23.2866 6.75931C23.4636 7.07782 23.8528 7.29016 24.2067 7.29016C24.773 7.29016 25.233 6.7947 25.233 6.22847C25.233 5.66223 24.773 5.20217 24.2067 5.16678ZM27.3201 5.66226C27.5678 5.23758 28.0278 4.98986 28.5233 4.98986C29.2665 4.98986 29.8681 5.59148 29.8681 6.33466C29.8681 7.07785 29.2665 7.71486 28.5233 7.71486C28.0278 7.71486 27.5678 7.46713 27.3201 7.04246C27.0723 6.61778 27.0723 6.08694 27.3201 5.66226ZM32.9477 6.01617C32.063 6.01617 31.3198 6.72396 31.3198 7.64409C31.3198 8.52884 32.0276 9.27202 32.9477 9.27202C33.8325 9.27202 34.5757 8.56423 34.5757 7.64409C34.5757 6.75935 33.8325 6.01617 32.9477 6.01617ZM35.248 10.4399C35.248 9.41359 36.062 8.56424 37.1237 8.56424C38.15 8.56424 38.9993 9.41359 38.9993 10.4399C38.9993 11.4662 38.1854 12.3155 37.1237 12.3155C36.0974 12.3155 35.248 11.4662 35.248 10.4399ZM40.4498 12.811C39.7066 12.811 39.0342 13.2003 38.6449 13.8373C38.2556 14.4743 38.2556 15.2529 38.6449 15.8899C39.0342 16.5269 39.7066 16.9162 40.4498 16.9162C41.5823 16.8808 42.467 15.9961 42.467 14.8636C42.4316 13.7665 41.5469 12.8464 40.4498 12.811ZM40.9108 19.2166C41.1939 18.7211 41.7601 18.438 42.3264 18.438C43.2111 18.4734 43.8835 19.1812 43.8835 20.0305C43.8835 20.8799 43.2111 21.5877 42.3264 21.6231C41.7601 21.6584 41.1939 21.3399 40.9108 20.8445C40.6277 20.349 40.6277 19.712 40.9108 19.2166ZM50.5727 23.1094C50.5727 24.5957 49.3695 25.799 47.8831 25.799C46.3967 25.799 45.1935 24.5957 45.1935 23.1094C45.1935 21.623 46.3967 20.4198 47.8831 20.4198C49.3695 20.4551 50.5727 21.6584 50.5727 23.1094ZM179.284 22.437C181.549 23.3572 183 24.702 183 27.25C183 29.9396 181.336 32.8416 175.922 32.7708C173.551 32.7708 171.144 32.3461 169.87 32.063C169.622 32.0276 169.375 31.8153 169.375 31.5322V29.6211C169.375 29.338 169.587 29.1257 169.87 29.1257H169.941L170.105 29.1476C171.245 29.3006 173.635 29.6211 175.992 29.6211C178.399 29.6211 179.107 28.7718 179.107 27.2146C179.107 25.6516 176.135 24.6169 173.733 23.7806C173.09 23.5566 172.487 23.3467 171.993 23.1448C169.658 22.1893 168.844 20.349 168.844 18.4734C168.844 15.5007 171.215 13.3773 176.169 13.3773C178.717 13.3773 181.053 13.8727 181.973 14.0851C182.256 14.1205 182.469 14.3328 182.469 14.5805V16.5623C182.469 16.8455 182.292 17.0578 182.009 17.0578H181.938C181.498 17.0129 181.051 16.9589 180.591 16.9032L180.591 16.9032C179.238 16.7397 177.771 16.5623 176.028 16.5623C174.046 16.5623 172.56 17.2701 172.56 18.4734C172.56 19.3581 173.586 20.1721 174.754 20.6322C175.477 20.93 176.328 21.2662 177.277 21.6408L177.279 21.6415C177.907 21.8898 178.579 22.155 179.284 22.437ZM130.624 16.7039H125.28V32.063C125.28 32.3462 125.032 32.5939 124.749 32.5939H122.095C121.812 32.5939 121.564 32.3462 121.564 32.063V16.7039H116.22C115.937 16.7039 115.69 16.527 115.69 16.2085V14.0851C115.69 13.802 115.937 13.5896 116.22 13.5896H130.624C130.907 13.5896 131.155 13.802 131.155 14.0851V16.2085C131.155 16.527 130.907 16.7039 130.624 16.7039ZM113.354 14.1204V25.2682C113.354 30.9659 109.638 32.8062 105.356 32.8062C101.074 32.8062 97.3579 30.9305 97.3579 25.2328V14.1204C97.3579 13.8373 97.6056 13.6249 97.8887 13.6249H100.543C100.826 13.6249 101.074 13.8373 101.074 14.1204V25.2328C101.074 28.2763 102.489 29.7273 105.356 29.7273C108.222 29.7273 109.638 28.2763 109.638 25.2328V14.1204C109.638 13.8373 109.886 13.6249 110.169 13.6249H112.823C113.106 13.6249 113.354 13.8373 113.354 14.1204ZM137.312 24.348H145.876C146.159 24.348 146.407 24.1003 146.407 23.8172V21.8707C146.407 21.5876 146.159 21.3399 145.876 21.3399H137.312V18.898C137.312 16.6685 137.382 16.5977 139.435 16.5977H146.194C146.478 16.5977 146.725 16.3499 146.725 16.0668V14.3681C146.725 13.9788 146.584 13.8727 146.194 13.8019C145.345 13.6603 143.611 13.4126 140.426 13.4126L140.342 13.4126C135.972 13.4124 133.631 13.4123 133.631 18.898V27.3561C133.631 32.8419 135.972 32.8418 140.342 32.8415H140.426C143.611 32.8415 145.345 32.5938 146.194 32.4523C146.584 32.4169 146.725 32.2753 146.725 31.886V30.1873C146.725 29.9042 146.478 29.6565 146.194 29.6565H139.435C137.418 29.6565 137.312 29.5857 137.312 27.3561V24.348ZM93.0396 24.348H84.4753V27.3561C84.4753 29.5857 84.5814 29.6565 86.5986 29.6565H93.3581C93.6412 29.6565 93.8889 29.9042 93.8889 30.1873V31.886C93.8889 32.2753 93.7474 32.4169 93.3581 32.4523C92.5087 32.5938 90.7746 32.8415 87.5896 32.8415H87.5056C83.1358 32.8418 80.7947 32.8419 80.7947 27.3561V18.898C80.7947 13.4123 83.1358 13.4124 87.5056 13.4126L87.5896 13.4126C90.7746 13.4126 92.5087 13.6603 93.3581 13.8019C93.7474 13.8727 93.8889 13.9788 93.8889 14.3681V16.0668C93.8889 16.3499 93.6412 16.5977 93.3581 16.5977H86.5986C84.546 16.5977 84.4753 16.6685 84.4753 18.898V21.3399H93.0396C93.3227 21.3399 93.5704 21.5876 93.5704 21.8707V23.8172C93.5704 24.1003 93.3227 24.348 93.0396 24.348ZM166.615 32.063L162.439 24.9142C164.633 24.0649 166.049 22.5077 166.049 19.6766V19.4642C166.049 14.899 162.262 13.4126 158.122 13.4126C156.175 13.4126 153.167 13.5542 151.787 13.7665C151.256 13.8373 150.938 14.0496 150.938 14.5805V32.0983C150.938 32.3815 151.185 32.6292 151.468 32.6292H154.158C154.441 32.6292 154.654 32.3815 154.654 32.0983V25.4805C155.255 25.5159 157.414 25.5866 158.122 25.5866H158.723L162.581 32.063C162.601 32.0981 162.62 32.1339 162.639 32.1696C162.756 32.3853 162.869 32.5938 163.112 32.5938H166.368C166.58 32.5938 166.686 32.4522 166.686 32.2753C166.686 32.2045 166.651 32.1337 166.615 32.063ZM162.333 19.6766C162.333 22.0123 160.847 22.5431 158.086 22.5431C157.852 22.5431 157.065 22.5247 156.294 22.5067L156.293 22.5067C155.552 22.4893 154.826 22.4724 154.618 22.4724V16.7038C155.078 16.6331 157.52 16.5977 158.086 16.5977C160.776 16.5977 162.333 17.447 162.333 19.4642V19.6766ZM73.6813 24.9142L77.8926 32.063C77.928 32.1337 77.928 32.2045 77.928 32.2753C77.928 32.4522 77.8219 32.5938 77.6095 32.5938H74.3537C74.1107 32.5938 73.998 32.3853 73.8815 32.1696C73.8623 32.1339 73.8429 32.0981 73.8228 32.063L69.9653 25.5866H69.3637C68.6559 25.5866 66.4972 25.5159 65.8955 25.4805V32.0983C65.8955 32.3815 65.6832 32.6292 65.4001 32.6292H62.7105C62.4273 32.6292 62.1796 32.3815 62.1796 32.0983V14.5805C62.1796 14.0496 62.4981 13.8373 63.029 13.7665C64.4092 13.5542 67.4173 13.4126 69.3637 13.4126C73.5043 13.4126 77.291 14.899 77.291 19.4642V19.6766C77.291 22.5077 75.8754 24.0649 73.6813 24.9142ZM69.3991 22.5431C72.1241 22.5431 73.6105 22.0123 73.6105 19.6766V19.4642C73.6105 17.447 72.0887 16.5977 69.3991 16.5977C68.8329 16.5977 66.391 16.6331 65.9309 16.7038V22.4724C66.139 22.4724 66.8654 22.4894 67.6064 22.5067C68.3775 22.5247 69.1645 22.5431 69.3991 22.5431Z" fill="black"/>
</svg>
