<svg width="192" height="35" viewBox="0 0 192 35" fill="none" xmlns="http://www.w3.org/2000/svg">
<path d="M22.9268 7.77015C22.9268 5.03891 21.0615 3.31545 18.6036 3.31545C18.0297 3.31545 16.5693 3.33423 16.0602 3.39058L14.3555 13.9577C14.6664 13.9859 15.2027 13.9577 15.4863 13.9577C19.5353 13.9577 22.9268 11.3204 22.9268 7.77015ZM53.1583 1.24353L49.7584 21.9918C49.6175 22.839 49.6081 23.178 51.2189 23.178L50.8131 25.8341H48.0161C49.5517 26.5413 51.0489 27.643 51.0489 29.0932C51.0489 31.8714 48.3176 34.0842 41.1598 34.0842C27.9084 34.0842 19.1596 27.3228 16.1541 17.1595H13.8089L12.7917 23.5556C12.6029 24.7794 12.6217 25.1757 14.7979 25.3166L16.2959 25.4199L15.6836 28.5466C13.5168 28.4141 11.1246 28.3005 8.74182 28.3108C6.57599 28.3108 4.29651 28.4235 2.14946 28.5466L2.65851 25.4199C3.22392 25.3917 3.60994 25.3917 3.97717 25.3532C4.31717 25.3251 4.65247 25.2556 4.97556 25.1466C5.57854 24.9578 6.06787 24.5718 6.19936 23.7904L9.43027 4.30444C8.50972 4.46646 7.60744 4.71908 6.73659 5.05863C6.02091 5.3404 5.23854 5.99034 5.23854 6.51818C5.23854 6.74453 5.28644 6.91359 5.38036 7.0648C5.50246 7.25264 5.65367 7.42264 5.65367 7.67623C5.65367 7.85468 5.57854 7.95894 5.48462 8.08197C5.01407 8.64738 3.95839 9.09821 2.96939 9.09821C2.66516 9.09833 2.36388 9.03851 2.08277 8.92217C1.80166 8.80583 1.54622 8.63525 1.33105 8.42017C1.11588 8.20508 0.945191 7.94971 0.828737 7.66865C0.712283 7.38759 0.652344 7.08633 0.652344 6.7821L0.652344 6.75392C0.652344 3.10882 5.2113 1.64834 8.13039 1.07447C11.4123 0.474303 14.7396 0.156 18.0758 0.123047C24.8099 0.123047 29.6976 2.22314 29.6976 7.53535C29.6976 11.9055 26.3831 14.7307 22.832 15.9357C25.535 24.3661 32.1368 30.6946 40.6132 30.6946C43.8347 30.6946 44.9646 29.3196 44.9646 27.9727C44.9821 27.4236 44.7807 26.89 44.4049 26.4894C44.029 26.0887 43.5094 25.8536 42.9603 25.836L42.8645 25.8351H41.5271L42.0361 23.1789C42.9782 23.1789 44.0141 23.0944 44.1738 22.1251L46.5941 7.15872C46.6317 6.89574 46.5284 6.78304 46.2551 6.78304H44.0038L44.4471 4.40963L52.886 0.972099L53.1593 1.2548L53.1583 1.24353ZM175.123 23.1771L174.615 25.8332H165.537L165.979 23.1771C167.373 23.1771 167.571 23.055 167.75 21.8593L168.738 15.3233C168.909 14.2029 168.23 13.8253 167.581 13.8253C166.263 13.8253 164.898 15.2003 164.661 16.7829L163.842 22.0848C163.72 22.839 163.842 23.1771 165.406 23.1771L164.992 25.8332H155.781L156.252 23.1771C157.918 23.1771 158.2 22.9329 158.361 21.9157L159.453 15.1815C159.528 14.71 159.453 14.6452 159.078 14.6452H157.07L157.485 12.3282L165.707 8.79578L165.953 9.03152L165.576 11.1034C167.083 9.76599 168.75 8.82395 170.643 8.82395C173.007 8.82395 174.59 11.0461 174.59 13.4205C174.59 13.9765 174.542 14.4273 174.419 15.2191L173.327 21.85C173.139 22.9611 173.337 23.1677 175.135 23.1677L175.123 23.1771ZM141.839 9.61572L140.276 12.9405C139.68 12.6997 139.045 12.572 138.402 12.5639H136.538L135.276 20.2871C135.05 21.6724 135.313 21.9166 136.029 21.9166C136.801 21.9166 137.593 21.5203 139.015 20.2214L140.24 22.6314C138.554 24.4206 136.407 26.3047 133.676 26.3047C130.774 26.3047 129.493 24.6469 129.493 22.019C129.493 21.463 129.589 20.7088 129.664 20.1828L130.888 12.563L128.751 12.6005L129.259 9.68146L131.294 9.70964L131.775 6.62055L137.388 4.34107L137.764 4.7177L136.973 9.64295L141.842 9.60538V9.61572H141.839ZM130.651 1.2811C129.932 3.77369 129.353 6.30481 128.917 8.86246H125.65C125.951 7.77955 126.045 7.10143 126.055 6.50784C126.084 5.09432 124.473 4.20019 122.082 4.20019C119.633 4.20019 117.994 5.4531 117.965 7.02535C117.938 8.51401 118.502 9.13577 120.387 10.4629L123.645 12.7705C126.677 14.9176 128.504 16.9247 128.447 20.3895C128.345 26.1441 123.465 29.0547 117.221 29.0547C115.762 29.0547 114.547 28.8199 113.548 28.5841C112.701 28.3766 111.882 28.1127 110.996 28.1127C110.331 28.1273 109.678 28.3015 109.094 28.6208L108.586 28.339C108.174 25.5481 107.671 22.7713 107.079 20.0128L110.488 19.1939C111.383 23.4128 113.341 25.3532 117.591 25.3532C120.378 25.3532 121.876 23.9979 121.914 21.8218C121.951 19.7311 120.868 18.8651 118.889 17.5652C118.018 17.0129 117.155 16.4477 116.3 15.87C115.474 15.3324 114.701 14.7173 113.992 14.0329C113.248 13.273 112.67 12.3663 112.295 11.3707C111.921 10.375 111.758 9.31222 111.817 8.25009C111.892 3.72964 115.942 0.52691 121.433 0.52691C123.73 0.52691 125.521 1.10171 127.592 1.21442C128.28 1.24259 129.439 1.09138 130.173 0.903536L130.645 1.28016H130.651V1.2811ZM71.891 4.03113C71.891 6.16879 69.574 8.04253 67.163 8.04253C65.9383 8.04253 64.5163 7.52502 64.5163 5.80155C64.5163 3.23937 67.116 1.51591 69.2725 1.51591C70.6954 1.51685 71.891 2.46827 71.891 4.03113ZM71.3453 9.03246L69.2734 21.6142C69.0386 23.0277 69.0095 23.1771 71.0438 23.1771L70.6296 25.8332H61.1454L61.5502 23.1771C63.114 23.1771 63.5658 22.8014 63.6982 21.9533L64.753 15.0782C64.8093 14.6828 64.8187 14.6452 64.4139 14.6452H62.2387L62.6444 12.3282L71.1115 8.79578L71.3453 9.03246ZM62.9159 1.14022L59.5816 21.5109C59.3365 23.0277 59.4971 23.1771 61.013 23.1771L60.5988 25.8238H51.3503L51.7645 23.1771C53.3847 23.1771 53.7895 22.8671 53.9689 21.7175L56.2859 7.32684C56.3611 6.85629 56.3047 6.79055 55.9469 6.79055H53.7989L54.2131 4.43593L62.6801 0.912929L62.9159 1.14867V1.14022ZM185.907 13.9953C185.859 12.4888 185.248 12.0558 184.372 12.0558C183.373 12.0558 181.952 13.2805 181.415 16.0108L185.907 13.9953ZM191.313 14.8143L180.973 19.5705C181.189 21.3409 182.178 22.5271 183.798 22.5271C185.493 22.5271 186.077 21.5757 186.077 21.1333C186.078 20.9412 186.019 20.7536 185.907 20.597C185.775 20.4092 185.672 20.2965 185.672 20.0514C185.661 19.9015 185.709 19.7534 185.804 19.6372C186.101 19.3217 186.46 19.0717 186.859 18.903C187.258 18.7343 187.688 18.6507 188.121 18.6576C189.327 18.6576 190.4 19.562 190.4 20.937C190.4 23.9228 187.471 26.3432 182.885 26.3432C178.364 26.3432 175.134 23.6025 175.134 18.4134C175.134 13.7708 179.277 8.76009 184.448 8.76009C188.78 8.75915 190.664 10.9344 191.313 14.8143ZM150.909 14.7767C150.909 12.903 150.298 12.0558 149.186 12.0558C147.566 12.0558 145.814 15.4839 145.814 20.3528C145.814 22.2172 146.445 23.0371 147.547 23.0371C149.261 23.0371 150.919 19.0811 150.919 14.7767M156.795 16.1423C156.795 21.2479 153.123 26.3713 147.284 26.3713C142.839 26.3713 140.003 23.781 140.003 18.62C140.003 13.3557 143.978 8.6934 149.459 8.6934C153.725 8.6934 156.805 11.3871 156.805 16.1339M99.5707 28.4527C99.5707 28.0666 99.2128 27.8037 98.3835 27.8037C97.433 27.8037 96.4722 27.9351 95.4926 27.9351C94.0023 27.9914 92.5202 27.691 91.1694 27.0589C90.5101 27.5773 90.1146 28.1709 90.1146 29.0275C90.1146 30.1301 91.5554 31.0336 93.1474 31.0336C97.3588 31.0327 99.5707 29.498 99.5707 28.4527ZM100.523 13.5895C100.523 12.6484 100.155 11.8191 99.3922 11.8191C97.6594 11.8191 96.9146 15.0312 96.9146 16.9519C96.9146 18.2894 97.1973 18.8548 98.1111 18.8548C99.6364 18.8548 100.522 15.3515 100.522 13.5802M111.137 10.8029C111.137 11.8858 110.176 13.2139 109.253 13.2139C108.952 13.2139 108.847 12.9978 108.688 12.7705C108.585 12.6285 108.44 12.5232 108.273 12.47C108.144 12.4208 108.006 12.395 107.868 12.3939C106.879 12.3939 106.172 13.5144 106.172 14.5043L106.201 15.1825C106.185 16.2547 105.879 17.3027 105.316 18.2152C104.575 19.3765 103.555 20.3334 102.349 20.9982C101.143 21.6631 99.789 22.0147 98.4117 22.0209C97.3639 22.0574 96.3179 21.9073 95.3226 21.5776C95.1516 21.7638 95.0516 22.0041 95.0399 22.2566C95.0399 22.9526 95.5959 23.1038 96.4431 23.1038C98.2051 23.1038 99.7773 22.8399 101.406 22.8399C104.194 22.8399 106.2 24.2149 106.2 26.7855C106.2 31.353 99.2298 34.1321 92.7322 34.1321C88.8711 34.1321 85.1509 33.0201 85.1509 29.7431C85.1509 28.123 86.0929 26.8616 88.2118 25.8341H80.5262L80.9695 23.178C82.5145 23.1404 82.6648 23.0287 82.8057 22.0491L83.8228 15.2585C83.9553 14.4198 83.3899 13.8272 82.6742 13.8272C81.3367 13.8272 79.9711 15.3337 79.7823 16.549L78.8976 22.1627C78.7839 22.8587 78.9352 23.1789 80.3947 23.1789L79.9805 25.8351H71.1753L71.6177 23.1789C73.1439 23.1789 73.19 22.9535 73.313 22.1627L74.4438 15.1552C74.519 14.6847 74.4438 14.6471 74.1048 14.6471H71.9201L72.3625 12.2925L80.8014 8.79766L81.0371 9.0334L80.6981 11.0771C82.3933 9.6082 84.1262 8.79766 85.6618 8.79766C88.3555 8.79766 89.6732 11.3129 89.6732 13.6196C89.6732 13.8741 89.6075 14.5053 89.5793 14.7504L88.4212 21.9927C88.2804 22.869 88.8918 23.1226 89.7399 23.1789C90.1635 21.5691 91.3601 20.7313 92.7726 20.1565C92.2395 19.6097 91.8228 18.9605 91.5476 18.2481C91.2724 17.5358 91.1443 16.775 91.1713 16.0118C91.1713 11.4256 95.3057 8.6286 99.5059 8.6286C101.418 8.6286 103.792 9.26914 105.11 11.2744C106.063 9.6082 107.427 8.6286 108.848 8.6286C110.12 8.6286 111.128 9.4382 111.128 10.7954M37.9862 14.7767C37.9862 12.903 37.3645 12.0558 36.2534 12.0558C34.6332 12.0558 32.891 15.4839 32.891 20.3528C32.891 22.2172 33.5221 23.0465 34.6238 23.0465C36.3379 23.0465 37.9862 19.0905 37.9862 14.7767ZM43.8723 16.1423C43.8723 21.2479 40.199 26.3713 34.3505 26.3713C29.9146 26.3713 27.0706 23.781 27.0706 18.62C27.0706 13.3557 31.0454 8.6934 36.5267 8.6934C40.8029 8.6934 43.8732 11.3871 43.8732 16.1339" fill="black"/>
</svg>
