<svg width="283" height="24" viewBox="0 0 283 24" fill="none" xmlns="http://www.w3.org/2000/svg">
<path fill-rule="evenodd" clip-rule="evenodd" d="M94.0713 18.3792H88.1166V18.1086L88.7121 18.0544C89.091 18.0003 89.2534 17.8379 89.2534 17.4048V10.0968C89.2534 9.23064 88.8204 8.85171 88.1166 8.85171C87.2505 8.85171 86.4385 9.60958 86.4385 10.3133V17.3507C86.4385 17.9462 86.655 18.0003 87.034 18.0544L87.5753 18.1086V18.3792H81.6206V18.1086L82.3243 18.0003C82.6491 17.9462 82.7574 17.7838 82.7574 17.5131V4.73754C82.7574 3.43833 82.3785 3.33007 81.5123 3.16766V2.897L86.4385 1.70605V8.90584C87.1964 7.98557 88.658 6.95703 90.0655 6.95703C91.6895 6.95703 92.9887 7.8773 92.9887 9.77198V17.3507C92.9887 17.9208 93.1872 17.9451 93.5841 17.9936L93.6383 18.0003L94.1255 18.0544L94.0713 18.3792ZM123.845 18.3792H117.89V18.1086L118.486 18.0544C118.865 18.0003 119.027 17.8379 119.027 17.4048V10.0968C119.027 9.23064 118.594 8.85171 117.89 8.85171C117.024 8.85171 116.212 9.60958 116.212 10.3133V17.3507C116.212 17.9462 116.429 18.0003 116.808 18.0544L117.349 18.1086V18.3792H111.394V18.1086L112.044 18.0003C112.369 17.9462 112.477 17.7838 112.477 17.5131V4.73754C112.477 3.43833 112.098 3.33007 111.232 3.16766V2.897L116.158 1.70605V8.90584C116.916 7.98557 118.378 6.95703 119.785 6.95703C121.409 6.95703 122.708 7.8773 122.708 9.77198V17.3507C122.708 17.9208 122.907 17.9451 123.304 17.9936L123.358 18.0003L123.845 18.0544V18.3792ZM129.15 4.30449C129.15 5.33303 128.284 6.19917 127.147 6.19917C126.01 6.19917 125.198 5.38716 125.198 4.30449C125.198 3.27595 126.01 2.40981 127.147 2.40981C128.338 2.40981 129.15 3.22181 129.15 4.30449ZM142.954 18.3793H137V18.1086L137.595 18.0545C137.974 18.0003 138.136 17.9462 138.136 17.459V10.0427C138.136 9.33893 137.757 8.85173 137 8.85173C136.079 8.85173 135.321 9.6096 135.321 10.3675V17.2966C135.321 17.8921 135.484 17.9462 135.917 18.0003L136.458 18.0545V18.3251H130.612V18.0545L131.153 17.9462L131.185 17.94L131.203 17.9365L131.204 17.9363L131.204 17.9363L131.205 17.9362C131.451 17.8896 131.64 17.8537 131.64 17.2966V9.88027C131.64 8.85173 131.424 8.52692 130.395 8.36452V8.09385L135.267 6.90291V8.85173L135.29 8.83043C136.206 7.96795 137.338 6.90291 138.948 6.90291C140.951 6.90291 141.872 8.14799 141.872 9.71787V17.2966C141.872 17.8379 142.088 17.8921 142.467 17.9462L143.008 18.0003L142.954 18.3793ZM124.278 18.3792H130.179L130.233 18.1086L129.8 18.0544C129.259 17.9462 129.096 17.892 129.096 17.2424V6.95703L124.17 8.14797V8.41864C125.199 8.52691 125.415 8.90585 125.415 9.93439V17.4048C125.415 17.9462 125.199 18.0003 124.82 18.0544C124.82 18.0544 124.441 18.0544 124.278 18.1086V18.3792ZM105.494 18.7582C108.525 18.7582 110.204 16.9718 110.961 15.7809L110.583 15.4019L110.542 15.4467C109.942 16.1023 108.949 17.1884 106.198 17.1884C103.599 17.1884 101.542 14.7523 101.542 10.3134C101.542 6.41574 103.058 3.49252 105.656 3.49252C107.064 3.49252 107.93 3.76319 108.525 4.2504L109.987 6.95708H110.474L110.42 3.16772C110.149 3.27599 109.771 3.33012 109.5 3.33012C109.189 3.33012 108.831 3.22701 108.388 3.09972C107.675 2.89448 106.743 2.62638 105.44 2.62638C101.272 2.62638 97.428 5.0624 97.428 10.9088C97.428 15.6726 100.243 18.7582 105.494 18.7582ZM78.2643 18.5958C80.3214 18.5958 81.6747 17.5132 82.2702 16.4846L82.1078 16.1057C81.6206 16.4846 80.9169 16.9177 80.2673 16.9177C79.5635 16.9177 79.0222 16.4846 79.0222 15.5102V8.25629H81.4582L81.783 7.33602H79.0222V4.14213H78.7515L73.9336 7.98562V8.25629H75.287V15.835C75.287 17.2425 76.2614 18.5958 78.2643 18.5958ZM74.2044 18.0545L69.4407 18.4875V16.647C68.6828 17.5131 67.2212 18.5958 65.7596 18.5958C63.8649 18.5958 62.8905 17.3507 62.8905 15.7267V9.77202C62.8905 8.74347 62.5116 8.41867 61.6454 8.31041V8.03974L66.5716 6.84879V15.1313C66.5716 15.9974 66.8964 16.4846 67.7084 16.4846C68.2497 16.4846 68.4663 16.3763 68.8452 16.1598C69.3324 15.835 69.3865 15.6185 69.3865 15.023V9.77202C69.3865 8.74347 69.0617 8.47281 68.1415 8.31041V8.03974L73.0676 6.84879V16.8094C73.0676 17.5119 73.5792 17.6097 74.0851 17.7065L74.0852 17.7065L74.0853 17.7065L74.0854 17.7066L74.158 17.7205L74.2044 17.7297V18.0545ZM43.6192 18.65C47.2462 18.65 49.8446 16.5929 49.8446 13.399C49.8446 10.9088 48.383 9.66377 45.1891 8.63523C42.4824 7.76909 41.6163 7.11948 41.6163 5.82027C41.6163 4.52106 42.8072 3.60079 44.4312 3.60079C45.3515 3.60079 46.5425 3.81733 46.9755 4.30453L48.4371 6.90295H48.8702V3.38426C48.789 3.38426 48.6807 3.39779 48.5725 3.41132C48.4642 3.42486 48.3559 3.43839 48.2747 3.43839C48.1347 3.43839 47.8983 3.35344 47.5785 3.23849C46.9095 2.99805 45.8755 2.62638 44.5936 2.62638C41.5622 2.62638 38.8555 4.62933 38.8555 7.33602C38.8555 9.8803 40.4795 11.1795 43.4027 12.0998C45.7305 12.8577 46.7049 13.8321 46.7049 15.1313C46.7049 16.5387 45.6763 17.7838 43.7816 17.7838C42.3742 17.7838 41.5622 17.2966 40.7501 16.8094L39.3968 13.8862H38.9637V17.4049C39.9381 18.1086 41.7246 18.65 43.6192 18.65ZM154.701 17.0801C154.431 17.5673 153.348 18.5958 151.724 18.5958C150.1 18.5958 149.505 17.7297 149.342 16.7552C148.693 17.7297 147.826 18.5958 145.932 18.5958C143.983 18.5958 142.9 17.459 142.9 15.835C142.9 14.1568 143.875 13.2366 146.419 12.2622C146.593 12.195 146.76 12.1324 146.922 12.0723L146.924 12.0716L146.924 12.0714C148.321 11.5506 149.234 11.2103 149.234 9.6096C149.234 8.09386 148.638 7.55252 147.881 7.55252C146.852 7.55252 146.257 8.20212 146.148 8.36452C146.167 8.377 146.193 8.39163 146.224 8.40924C146.464 8.54451 147.014 8.85573 147.014 9.71787C147.014 10.6923 146.202 11.2877 145.228 11.2877C144.2 11.2877 143.712 10.4757 143.712 9.6096C143.712 8.09386 145.769 6.90291 148.909 6.90291C151.562 6.90291 152.861 8.14799 152.861 10.3133V16.1056C152.861 16.9718 152.969 17.3507 153.51 17.3507C153.835 17.3507 154.16 17.1342 154.431 16.8635L154.701 17.0801ZM149.234 15.456V11.6125C148.915 11.9982 148.535 12.2696 148.16 12.5361C147.327 13.13 146.527 13.6998 146.527 15.456C146.527 16.3763 146.96 17.0259 147.772 17.0259C148.53 17.0259 149.234 16.1056 149.234 15.456ZM56.1239 18.5958C59.2095 18.5958 61.6455 16.2139 61.6455 12.8035C61.6455 9.33893 59.2095 6.95705 56.1239 6.90291C53.0924 6.90291 50.6023 9.33893 50.6023 12.7494C50.6023 16.2139 53.0383 18.5958 56.1239 18.5958ZM56.178 7.49838C57.5314 7.49838 57.9103 8.85173 57.9103 12.8035C57.9103 16.4846 57.5314 18.0545 56.178 18.0003C54.7706 18.0003 54.4458 16.4304 54.4458 12.7494C54.4458 8.85173 54.7706 7.49838 56.178 7.49838ZM282.999 16.4845C282.403 17.5131 281.104 18.6499 278.993 18.6499C276.99 18.6499 276.016 17.2965 276.016 15.889V8.25619H274.662V7.98552L279.48 4.14203H279.751V7.33591H282.512L282.187 8.25619H279.751V15.5642C279.751 16.5386 280.292 16.9176 280.996 16.9176C281.645 16.9176 282.187 16.5386 282.728 16.1056L282.999 16.4845ZM269.79 18.5957C272.497 18.5957 274.662 17.0799 274.662 14.6439C274.662 12.4786 273.038 11.7207 271.089 11.1252C270.903 11.0547 270.72 10.9871 270.54 10.9212C269.206 10.4308 268.112 10.0289 268.112 9.12228C268.112 8.20201 268.816 7.66067 270.332 7.66067C271.089 7.66067 271.793 7.93134 272.226 8.25614L273.525 10.3674H273.796V7.5524C273.569 7.62059 273.275 7.52654 272.862 7.39447C272.291 7.21199 271.494 6.95693 270.332 6.95693C267.95 6.95693 265.838 8.31028 265.838 10.6922C265.838 12.641 267.354 13.5612 269.032 14.1567L269.191 14.2075L269.334 14.2529C270.736 14.698 272.01 15.1022 272.01 16.2138C272.01 17.2965 271.144 17.9461 269.844 17.9461C269.032 17.9461 268.058 17.6213 267.517 17.2423L266.217 14.8063H265.947V17.7295C266.008 17.7566 266.076 17.7905 266.154 17.8291C266.7 18.0985 267.707 18.5957 269.79 18.5957ZM227.025 18.3791H221.124V18.1085L221.665 18.0543C222.044 18.0002 222.207 17.9461 222.207 17.4589V10.0426C222.207 9.33882 221.828 8.74334 221.07 8.74334C220.095 8.74334 219.338 9.55535 219.338 10.3674V17.2965C219.338 17.8919 219.5 17.9461 219.933 18.0002L220.474 18.0543V18.325H214.682V18.0543L215.223 17.9461C215.241 17.9426 215.258 17.9393 215.275 17.9361C215.521 17.8895 215.711 17.8535 215.711 17.2965V9.93429C215.711 8.90575 215.494 8.58094 214.465 8.41854V8.14787L219.338 6.95693V8.90575L219.36 8.88443C220.276 8.02195 221.408 6.95693 223.019 6.95693C225.022 6.95693 225.942 8.14787 225.942 9.77188V17.3506C225.942 17.8919 226.158 17.9461 226.537 18.0002L227.025 18.0543V18.3791ZM211.326 6.19917C212.462 6.19917 213.329 5.33303 213.329 4.30449C213.329 3.27595 212.462 2.40981 211.326 2.40981C210.189 2.40981 209.377 3.27595 209.377 4.30449C209.377 5.38716 210.189 6.19917 211.326 6.19917ZM214.358 18.3791H208.457V18.1085C208.674 18.0543 208.998 18.0543 208.998 18.0543C209.377 18.0002 209.594 17.9461 209.594 17.4047V9.93429C209.594 8.90575 209.323 8.52681 208.349 8.41854V8.14787L213.275 6.95693V17.2423C213.275 17.9461 213.437 18.0002 213.979 18.0543L214.412 18.1085L214.358 18.3791ZM202.177 18.3791H208.131V18.0543L207.59 18.0002C207.211 17.9461 206.995 17.8919 206.995 17.3506V9.77188C206.995 8.14787 206.074 6.95693 204.071 6.95693C202.461 6.95693 201.329 8.02195 200.413 8.88443L200.39 8.90575V6.95693L195.639 8.11832C195.481 7.38861 194.887 6.95693 194.057 6.95693C193.029 6.95693 191.892 7.66067 191.08 8.74334V6.95693L186.208 8.14787V8.41854C187.074 8.52681 187.453 8.79748 187.453 9.82602V17.2965C187.453 17.9461 187.29 18.0002 186.803 18.0543L186.316 18.1085V18.3791H192.379V18.1085L191.784 18.0543C191.351 18.0002 191.134 17.8919 191.134 17.3506V10.205C191.134 9.28468 192.379 8.41854 192.92 8.41854C192.758 8.63508 192.704 8.90575 192.704 9.12228C192.704 9.77189 193.245 10.2591 194.003 10.2591C195.086 10.2591 195.681 9.55535 195.681 8.52681C195.681 8.49709 195.681 8.46773 195.679 8.43872C196.57 8.57005 196.763 8.96182 196.763 9.93429V17.2965C196.763 17.8535 196.574 17.8895 196.328 17.9361C196.311 17.9393 196.294 17.9426 196.276 17.9461L195.735 18.0543V18.325H201.527V18.0543L200.986 18.0002C200.553 17.9461 200.39 17.8919 200.39 17.2965V10.3674C200.39 9.60948 201.202 8.85161 202.123 8.85161C202.88 8.85161 203.259 9.33882 203.259 10.0426V17.4589C203.259 17.9461 203.097 18.0002 202.718 18.0543L202.177 18.1085V18.3791ZM168.235 18.3792H175.543V18.1085L174.677 18.0003C174.028 17.9461 173.757 17.7296 173.757 17.08L173.324 5.06231V4.14204C173.324 3.54657 173.757 3.2759 174.623 3.22177V2.9511H169.805L166.232 12.7493H166.178L162.93 2.9511H157.463V3.33004C157.733 3.33004 158.166 3.38417 158.166 3.38417C158.978 3.4383 159.195 4.03377 159.195 4.68338V5.11645L158.87 15.9432C158.87 17.5131 158.329 17.9461 157.3 18.1627V18.4333H161.252V18.1627C160.223 18.0003 159.899 17.8379 159.899 16.5387V15.9432L160.061 6.36152H160.115L164.446 18.5416H165.15L169.589 6.25326H169.643L169.913 16.8635V17.1341C169.913 17.8379 169.751 17.9461 169.101 18.0003L168.235 18.1085V18.3792ZM264.972 12.8034C264.972 16.2138 262.482 18.5957 259.45 18.5957C256.365 18.5957 253.929 16.2138 253.929 12.7493C253.929 9.33883 256.419 6.90281 259.45 6.90281C262.536 6.95695 264.972 9.39296 264.972 12.8034ZM261.183 12.8034C261.183 8.85163 260.804 7.49828 259.45 7.49828C258.043 7.49828 257.718 8.85163 257.718 12.7493C257.718 16.4303 258.043 18.0002 259.45 18.0002C260.858 18.0544 261.183 16.4845 261.183 12.8034ZM248.624 11.5584C252.143 11.5584 254.795 9.98848 254.795 7.17353C254.795 3.97964 252.359 2.9511 247.975 2.9511H241.695V3.2759C242.886 3.4383 243.373 3.6007 243.373 4.52098V17.1883C243.373 17.7296 243.211 17.892 242.615 17.9461L241.695 18.0544V18.3792H248.949V18.0544L248.299 18.0003C247.379 17.892 247.163 17.6213 247.163 17.1341V11.5042C247.812 11.5584 248.083 11.5584 248.624 11.5584ZM248.137 3.54657C249.869 3.54657 250.79 4.57511 250.79 7.1194C250.79 9.93435 249.869 10.9629 248.083 10.9088C247.65 10.9088 247.433 10.8847 247.289 10.8687C247.217 10.8606 247.163 10.8546 247.108 10.8546V3.65484C247.379 3.6007 247.704 3.54657 248.137 3.54657ZM238.555 7.22762L237.851 8.58096L236.01 8.47269C236.606 9.01403 237.093 9.7719 237.093 10.9087C237.093 13.2906 234.874 14.9146 232.167 14.9146C231.517 14.9146 230.814 14.8063 230.272 14.6981C230.164 14.8605 230.11 15.077 230.11 15.2935C230.11 15.5642 230.651 15.7807 231.247 15.889L234.44 16.4845C237.255 17.0258 238.446 17.7837 238.446 19.5701C238.446 21.8979 235.361 23.3595 232.059 23.3595C229.027 23.3595 226.375 22.8181 226.375 21.14C226.375 19.7325 227.89 19.137 229.189 18.8122C228.161 18.3792 227.836 17.513 227.836 16.9176C227.836 15.7763 228.681 15.1819 229.562 14.5627L229.677 14.4815C228.161 13.8319 227.295 12.5869 227.295 10.9628C227.295 8.58096 229.514 6.90281 232.221 6.90281C233.304 6.90281 233.953 7.11935 234.44 7.33588L238.555 7.22762ZM233.466 10.9628C233.466 8.41856 233.087 7.49828 232.113 7.49828C231.084 7.49828 230.814 8.41856 230.814 10.9628C230.814 13.453 231.138 14.3191 232.113 14.3191C233.087 14.3191 233.466 13.453 233.466 10.9628ZM235.415 21.0858C235.415 20.2738 234.765 20.0032 232.979 19.6784L229.947 19.0829C229.895 19.1297 229.841 19.1753 229.788 19.2207C229.349 19.5957 228.919 19.9637 228.919 20.9776C228.919 22.1144 230.164 22.8181 232.113 22.8181C234.224 22.8181 235.415 21.952 235.415 21.0858ZM180.524 18.5957C183.555 18.5957 186.046 16.2138 186.046 12.8034C186.046 9.39296 183.555 6.95695 180.524 6.90281C177.493 6.90281 175.002 9.33883 175.002 12.7493C175.002 16.2138 177.438 18.5957 180.524 18.5957ZM180.524 7.49828C181.877 7.49828 182.256 8.85163 182.256 12.8034C182.256 16.4845 181.877 18.0544 180.524 18.0002C179.117 18.0002 178.792 16.4303 178.792 12.7493C178.792 8.85163 179.117 7.49828 180.524 7.49828Z" fill="black"/>
<path d="M0.3125 0.894531H11.843V19.5165H0.3125V0.894531Z" fill="black"/>
<path d="M14.4961 0.894531H26.0266V19.5165H14.4961V0.894531Z" fill="#666666"/>
</svg>
