<svg width="146" height="19" viewBox="0 0 146 19" fill="none" xmlns="http://www.w3.org/2000/svg">
<g clip-path="url(#clip0_327_5085)">
<path d="M24.4796 8.50746C24.0108 7.489 23.7679 6.96059 23.4398 6.16797C23.1373 6.96059 23.035 7.20349 22.464 8.56712L21.3475 11.3114H25.7409L24.4796 8.50746ZM20.0862 14.7078L18.518 18.168H13.937L21.9143 1.36541H25.7793L33.7522 18.168H29.2395L27.535 14.7078H20.0862ZM45.1641 8.64809C46.0973 8.64809 46.4851 8.58843 46.8686 8.38388C47.1685 8.21078 47.4182 7.96257 47.593 7.6637C47.7678 7.36482 47.8619 7.02557 47.8658 6.67934C47.8602 6.33345 47.7655 5.99485 47.5908 5.69626C47.4161 5.39767 47.1674 5.14918 46.8686 4.97479C46.5022 4.77024 46.1144 4.72763 45.1641 4.72763H39.569V8.614L45.1641 8.64809ZM39.569 18.168H35.3588V1.36541H46.3232C48.2749 1.36541 49.3317 1.61257 50.3288 2.21769C50.9621 2.61935 51.4828 3.17541 51.8421 3.83363C52.2014 4.49184 52.3875 5.23059 52.3828 5.98047C52.3828 7.97479 51.3473 9.45775 49.4553 10.2418C51.1214 10.8342 51.6328 11.7674 51.6712 14.3924C51.7521 16.489 51.8757 17.0984 52.3828 18.1765H47.7465C47.4396 17.239 47.38 16.8555 47.4226 15.2447C47.4226 12.8072 46.7493 12.0529 44.5931 12.0529H39.569V18.168ZM72.0702 18.168V1.36541H87.445V4.77451H76.2804V7.92792H86.1453V11.337H76.2804V14.7972H87.445V18.2063L72.0702 18.168ZM99.6495 18.168H95.4393V4.76172H89.6226V1.35263H105.445V4.76172H99.6495V18.168ZM126.07 11.597C124.868 16.3782 121.595 18.7774 116.166 18.7774C109.983 18.7774 106.076 15.3384 106.076 9.93076C106.076 4.39098 110.103 0.777344 116.264 0.777344C119.218 0.777344 121.536 1.54865 123.364 3.1978C124.606 4.23178 125.472 5.64757 125.827 7.22479H121.289C120.436 5.09411 118.77 4.05007 116.247 4.05007C112.868 4.05007 110.533 6.43218 110.533 9.84979C110.533 13.1822 112.851 15.5046 116.166 15.5046C118.851 15.5046 120.458 14.3029 121.433 11.597H126.07ZM141.061 1.36541V7.91513H132.402V1.36541H128.192V18.168H132.402V11.3114H141.048V18.168H145.254V1.36541H141.061ZM0.300781 18.168V1.36541H15.045V4.77451H4.51098V7.92792H14.1714V11.337H4.51098V18.168H0.300781ZM55.1484 18.168V1.36541H69.8969V4.77451H59.3586V7.92792H69.0403V11.337H59.3586V18.168H55.1484Z" fill="black"/>
</g>
<defs>
<clipPath id="clip0_327_5085">
<rect width="144.966" height="18" fill="white" transform="translate(0.300781 0.77832)"/>
</clipPath>
</defs>
</svg>
