<svg width="167" height="40" viewBox="0 0 167 40" fill="none" xmlns="http://www.w3.org/2000/svg">
<g clip-path="url(#clip0_859_6351)">
<path fill-rule="evenodd" clip-rule="evenodd" d="M19.2294 0L28.9752 9.73789C29.1784 9.94114 29.4198 10.1024 29.6854 10.2123C29.951 10.3223 30.2358 10.3789 30.5233 10.3788H40.0212V29.5973L29.6117 40H20.7902L11.0508 30.2589C10.6396 29.8498 10.083 29.6199 9.50274 29.6196H0V10.4027L10.4095 0H19.2294ZM12.6629 29.5413H27.3711C27.6587 29.5409 27.9433 29.4839 28.2087 29.3735C28.4742 29.2632 28.7153 29.1017 28.9183 28.8982C29.1213 28.6948 29.2823 28.4533 29.3919 28.1877C29.5015 27.9221 29.5577 27.6375 29.5573 27.3502V12.6466C29.5573 12.0664 29.3267 11.5098 28.9161 11.0995C28.5055 10.6892 27.9486 10.4587 27.368 10.4587H12.6549C12.075 10.4608 11.5197 10.6927 11.1108 11.1035C10.7018 11.5143 10.4726 12.0704 10.4735 12.6498V27.3534C10.4735 27.9336 10.7041 28.4902 11.1147 28.9005C11.5253 29.3108 12.0822 29.5413 12.6629 29.5413ZM79.6536 24.539H79.6936L79.6872 29.3432H83.2056V17.606C83.2056 12.765 80.9458 10.1024 75.6987 10.1024C70.733 10.1024 68.1438 12.5636 67.5041 16.9603L70.8545 17.4397C71.3791 14.3328 72.8728 13.083 75.5771 13.083C78.5645 13.083 79.6936 14.6956 79.6936 17.6411V18.6496H73.5989C69.0378 18.6496 66.9396 21.1108 66.9396 24.4175C66.9396 27.9672 69.3161 29.7428 72.9943 29.7428C76.2632 29.7428 78.806 28.0071 79.6536 24.539ZM79.6936 21.4321V22.3207C79.6936 24.9018 77.5634 26.7973 74.0834 26.7973C71.3343 26.7973 70.4052 25.426 70.4052 23.9748C70.4052 22.3207 71.7021 21.4321 74.0834 21.4321H79.6936ZM96.486 29.8226C92.3279 29.8226 90.1481 27.5244 89.3805 23.7318H89.3405V34.9065H85.8222V10.5002H89.3405V16.0268H89.4221C90.2297 12.2758 92.4495 10.0176 96.4444 10.0176C101.532 10.0176 104.194 13.8085 104.194 19.8594C104.194 26.0316 101.37 29.8226 96.486 29.8226ZM100.724 19.8594C100.724 15.6241 98.9472 13.2044 95.1538 13.2044C91.6019 13.2044 89.3405 15.5426 89.3405 19.7379V20.0208C89.3405 24.0547 91.6019 26.6773 95.1538 26.6773C98.8337 26.6773 100.724 24.1761 100.724 19.8594ZM104.154 13.5256H106.939V23.7302C106.939 27.2399 108.675 29.821 112.63 29.821C114.003 29.8423 115.368 29.626 116.667 29.1817L116.224 25.9549C115.215 26.233 114.367 26.4344 113.358 26.4344C111.258 26.4344 110.451 25.346 110.451 23.2475V13.5256H116.472V10.5002H110.457V5.29805H106.939V10.5002H104.154V13.5256ZM132.207 24.2563H132.167C131.367 28.092 128.897 29.8229 125.588 29.8229C120.704 29.8229 119.008 26.5961 119.008 22.5622V10.5005H122.527V21.6752C122.527 24.2563 123.656 26.5961 127.046 26.5961C130.277 26.5961 132.213 24.8221 132.213 21.6752V10.5005H135.732V29.3386H132.213L132.207 24.2563ZM138.624 10.5005V29.3386H142.143V19.3754C142.143 15.7459 143.716 14.373 147.268 14.373H148.963V10.5005H147.794C144.767 10.5005 142.99 11.9133 142.223 16.31H142.143V10.5005H138.624ZM148.796 20.0607C148.796 13.7686 152.634 10.0176 158.362 10.0176C163.972 10.0176 166.998 13.6072 166.998 18.771C166.998 19.3751 166.998 20.1422 166.918 21.0292H152.307C152.671 24.7051 154.81 26.7173 158.402 26.7173C161.794 26.7173 163.125 24.9832 163.771 22.7633L166.88 23.6919C165.911 27.4029 163.202 29.7826 158.404 29.7826C152.591 29.7826 148.796 26.233 148.796 20.0607ZM152.389 18.2867H163.691C163.448 14.9305 161.713 13.043 158.241 13.043C155.012 13.043 152.874 14.777 152.389 18.2867ZM50.2691 19.9408C50.2691 24.1361 52.6503 26.5957 56.4038 26.5957C60.0773 26.5957 61.2879 24.3774 62.0235 21.5102L65.3724 22.1958C64.5248 26.9553 61.7805 29.8193 56.4534 29.8193C50.5585 29.8193 46.6852 26.2297 46.6852 19.896C46.6852 13.6902 50.7201 10.0143 56.3318 10.0143C61.6509 10.0143 64.3169 12.5922 65.2492 17.0464L61.7485 17.3884C60.9712 14.8137 59.3224 13.2443 56.2838 13.2443C52.7303 13.2443 50.2691 15.4658 50.2691 19.9408Z" fill="white"/>
</g>
<defs>
<clipPath id="clip0_859_6351">
<rect width="167" height="40" fill="white"/>
</clipPath>
</defs>
</svg>
