<svg width="344" height="76" viewBox="0 0 344 76" fill="none" xmlns="http://www.w3.org/2000/svg">
<path d="M82.72 26.9503C82.72 23.6298 80.4523 21.5345 77.464 21.5345C76.7663 21.5345 74.9907 21.5573 74.3719 21.6258L72.2994 34.4729C72.6773 34.5072 73.3293 34.4729 73.6742 34.4729C78.5967 34.4729 82.72 31.2666 82.72 26.9503ZM119.474 19.0156L115.341 44.2404C115.169 45.2703 115.158 45.6825 117.116 45.6825L116.623 48.9117H113.222C115.089 49.7715 116.91 51.1109 116.91 52.874C116.91 56.2516 113.589 58.9418 104.887 58.9418C88.7764 58.9418 78.14 50.7216 74.486 38.3655H71.6348L70.3982 46.1416C70.1687 47.6294 70.1915 48.1113 72.8372 48.2826L74.6585 48.4082L73.914 52.2094C71.2797 52.0484 68.3714 51.9102 65.4745 51.9228C62.8414 51.9228 60.0701 52.0598 57.4598 52.2094L58.0787 48.4082C58.7661 48.3739 59.2354 48.3739 59.6818 48.3271C60.0952 48.2928 60.5028 48.2083 60.8956 48.0759C61.6287 47.8464 62.2236 47.3771 62.3835 46.427L66.3115 22.7369C65.1923 22.9339 64.0953 23.241 63.0366 23.6538C62.1665 23.9963 61.2153 24.7865 61.2153 25.4282C61.2153 25.7034 61.2736 25.909 61.3878 26.0928C61.5362 26.3212 61.72 26.5279 61.72 26.8362C61.72 27.0531 61.6287 27.1799 61.5145 27.3294C60.9424 28.0168 59.659 28.5649 58.4566 28.5649C58.0867 28.5651 57.7205 28.4924 57.3787 28.3509C57.0369 28.2095 56.7264 28.0021 56.4648 27.7406C56.2032 27.4791 55.9957 27.1686 55.8541 26.8269C55.7125 26.4852 55.6396 26.119 55.6396 25.7491V25.7148C55.6396 21.2833 61.1822 19.5077 64.7311 18.81C68.7212 18.0804 72.7663 17.6934 76.8223 17.6533C85.0094 17.6533 90.9516 20.2065 90.9516 26.6649C90.9516 31.9779 86.922 35.4127 82.6047 36.8777C85.8909 47.127 93.9171 54.8208 104.222 54.8208C108.139 54.8208 109.513 53.1492 109.513 51.5117C109.534 50.8442 109.289 50.1955 108.832 49.7083C108.375 49.2212 107.743 48.9355 107.076 48.914L106.959 48.9129H105.333L105.952 45.6837C107.098 45.6837 108.357 45.5809 108.551 44.4025L111.494 26.207C111.539 25.8873 111.414 25.7502 111.081 25.7502H108.344L108.883 22.8648L119.143 18.6856L119.475 19.0293L119.474 19.0156ZM267.754 45.6814L267.136 48.9106H256.099L256.637 45.6814C258.331 45.6814 258.572 45.533 258.79 44.0794L259.991 36.1332C260.199 34.7709 259.374 34.3119 258.585 34.3119C256.981 34.3119 255.322 35.9836 255.035 37.9076L254.039 44.3534C253.89 45.2703 254.039 45.6814 255.94 45.6814L255.436 48.9106H244.238L244.81 45.6814C246.836 45.6814 247.18 45.3845 247.375 44.1479L248.703 35.9608C248.794 35.3875 248.703 35.3087 248.246 35.3087H245.806L246.31 32.4918L256.305 28.1972L256.605 28.4839L256.147 31.0028C257.978 29.3768 260.005 28.2315 262.307 28.2315C265.181 28.2315 267.105 30.9331 267.105 33.8198C267.105 34.4957 267.047 35.0438 266.897 36.0064L265.57 44.068C265.341 45.4188 265.582 45.67 267.769 45.67L267.754 45.6814ZM227.289 29.1941L225.388 33.2363C224.664 32.9435 223.891 32.7882 223.109 32.7784H220.844L219.309 42.1679C219.034 43.8521 219.354 44.149 220.225 44.149C221.164 44.149 222.126 43.6672 223.855 42.088L225.344 45.018C223.294 47.1932 220.684 49.4838 217.363 49.4838C213.836 49.4838 212.279 47.4684 212.279 44.2735C212.279 43.5975 212.395 42.6806 212.487 42.0412L213.974 32.7772L211.377 32.8229L211.994 29.274L214.468 29.3083L215.052 25.5527L221.877 22.7814L222.334 23.2393L221.373 29.2272L227.292 29.1815V29.1941H227.289ZM213.687 19.0612C212.812 22.0916 212.108 25.1688 211.579 28.2783H207.606C207.973 26.9618 208.087 26.1373 208.098 25.4157C208.134 23.6972 206.176 22.6101 203.268 22.6101C200.292 22.6101 198.299 24.1334 198.264 26.0448C198.23 27.8547 198.917 28.6106 201.207 30.224L205.168 33.0296C208.855 35.6399 211.076 38.08 211.007 42.2924C210.882 49.2885 204.95 52.8272 197.359 52.8272C195.585 52.8272 194.107 52.5417 192.893 52.2551C191.863 52.0027 190.868 51.6819 189.791 51.6819C188.982 51.6996 188.189 51.9115 187.479 52.2996L186.861 51.9571C186.359 48.564 185.748 45.188 185.028 41.8345L189.173 40.8388C190.261 45.968 192.642 48.3271 197.808 48.3271C201.197 48.3271 203.018 46.6794 203.064 44.0337C203.11 41.4919 201.793 40.4391 199.387 38.8588C198.328 38.1872 197.278 37.5002 196.239 36.7977C195.235 36.1442 194.295 35.3963 193.434 34.5643C192.528 33.6405 191.826 32.5382 191.37 31.3277C190.915 30.1172 190.717 28.8251 190.789 27.5338C190.88 22.0381 195.804 18.1443 202.479 18.1443C205.272 18.1443 207.45 18.8431 209.968 18.9802C210.803 19.0144 212.213 18.8306 213.105 18.6022L213.679 19.0601H213.687V19.0612ZM142.249 22.4046C142.249 25.0035 139.432 27.2815 136.5 27.2815C135.011 27.2815 133.283 26.6523 133.283 24.557C133.283 21.442 136.443 19.3467 139.065 19.3467C140.795 19.3478 142.249 20.5045 142.249 22.4046ZM141.585 28.485L139.066 43.7813C138.781 45.4998 138.745 45.6814 141.219 45.6814L140.715 48.9106H129.185L129.677 45.6814C131.578 45.6814 132.127 45.2247 132.288 44.1936L133.57 35.8351C133.639 35.3544 133.65 35.3087 133.158 35.3087H130.514L131.007 32.4918L141.301 28.1972L141.585 28.485ZM131.337 18.89L127.283 43.6557C126.985 45.4998 127.181 45.6814 129.024 45.6814L128.52 48.8992H117.276L117.78 45.6814C119.749 45.6814 120.241 45.3046 120.46 43.9069L123.277 26.4114C123.368 25.8393 123.299 25.7594 122.864 25.7594H120.253L120.756 22.8967L131.05 18.6136L131.337 18.9002V18.89ZM280.865 34.5186C280.806 32.687 280.063 32.1606 278.998 32.1606C277.784 32.1606 276.056 33.6496 275.403 36.969L280.865 34.5186ZM287.437 35.5143L274.865 41.2967C275.128 43.4491 276.33 44.8912 278.3 44.8912C280.361 44.8912 281.071 43.7345 281.071 43.1967C281.072 42.9631 281 42.735 280.865 42.5447C280.704 42.3163 280.578 42.1793 280.578 41.8813C280.566 41.6991 280.623 41.5191 280.739 41.3777C281.1 40.9942 281.537 40.6902 282.022 40.4852C282.507 40.2801 283.029 40.1785 283.556 40.1868C285.022 40.1868 286.327 41.2864 286.327 42.9581C286.327 46.588 282.766 49.5306 277.19 49.5306C271.694 49.5306 267.766 46.1987 267.766 39.8899C267.766 34.2457 272.804 28.1539 279.09 28.1539C284.357 28.1527 286.648 30.7973 287.437 35.5143ZM238.315 35.4686C238.315 33.1906 237.572 32.1606 236.22 32.1606C234.25 32.1606 232.121 36.3284 232.121 42.2478C232.121 44.5144 232.888 45.5113 234.228 45.5113C236.311 45.5113 238.327 40.7018 238.327 35.4686M245.471 37.1289C245.471 43.336 241.007 49.5649 233.908 49.5649C228.503 49.5649 225.056 46.4156 225.056 40.1411C225.056 33.741 229.889 28.0728 236.552 28.0728C241.739 28.0728 245.483 31.3476 245.483 37.1186M175.9 52.0952C175.9 51.6259 175.465 51.3062 174.457 51.3062C173.301 51.3062 172.133 51.4661 170.942 51.4661C169.13 51.5344 167.329 51.1692 165.686 50.4007C164.885 51.031 164.404 51.7527 164.404 52.794C164.404 54.1346 166.156 55.2331 168.091 55.2331C173.211 55.2319 175.9 53.3661 175.9 52.0952ZM177.058 34.0253C177.058 32.8812 176.611 31.8729 175.683 31.8729C173.577 31.8729 172.671 35.7781 172.671 38.1132C172.671 39.7392 173.015 40.4266 174.126 40.4266C175.98 40.4266 177.057 36.1674 177.057 34.0139M189.962 30.6374C189.962 31.954 188.794 33.5686 187.672 33.5686C187.305 33.5686 187.178 33.3059 186.984 33.0296C186.86 32.857 186.683 32.7289 186.481 32.6642C186.323 32.6043 186.156 32.573 185.987 32.5717C184.785 32.5717 183.926 33.934 183.926 35.1375L183.961 35.9619C183.942 37.2655 183.57 38.5396 182.885 39.649C181.985 41.0608 180.744 42.2241 179.278 43.0325C177.812 43.8408 176.166 44.2683 174.491 44.2758C173.217 44.3202 171.946 44.1377 170.736 43.7368C170.528 43.9632 170.406 44.2554 170.392 44.5624C170.392 45.4085 171.068 45.5923 172.098 45.5923C174.24 45.5923 176.151 45.2715 178.131 45.2715C181.522 45.2715 183.96 46.9432 183.96 50.0684C183.96 55.6213 175.486 59 167.586 59C162.892 59 158.369 57.6481 158.369 53.6641C158.369 51.6944 159.515 50.1609 162.091 48.9117H152.747L153.286 45.6825C155.164 45.6369 155.347 45.501 155.518 44.31L156.755 36.0544C156.916 35.0347 156.228 34.3142 155.358 34.3142C153.732 34.3142 152.072 36.1457 151.842 37.6233L150.767 44.4482C150.629 45.2943 150.812 45.6837 152.587 45.6837L152.083 48.9129H141.378L141.916 45.6837C143.772 45.6837 143.828 45.4096 143.977 44.4482L145.352 35.9288C145.443 35.3567 145.352 35.311 144.94 35.311H142.284L142.822 32.4484L153.081 28.1995L153.368 28.4861L152.956 30.9708C155.017 29.185 157.124 28.1995 158.99 28.1995C162.265 28.1995 163.867 31.2574 163.867 34.0618C163.867 34.3713 163.787 35.1386 163.753 35.4366L162.345 44.2415C162.174 45.3069 162.917 45.6152 163.948 45.6837C164.463 43.7265 165.918 42.708 167.635 42.0092C166.987 41.3443 166.481 40.5551 166.146 39.689C165.812 38.8229 165.656 37.898 165.689 36.9702C165.689 31.3945 170.715 27.994 175.821 27.994C178.146 27.994 181.032 28.7727 182.635 31.2106C183.793 29.185 185.452 27.994 187.18 27.994C188.726 27.994 189.951 28.9783 189.951 30.6283M101.029 35.4686C101.029 33.1906 100.273 32.1606 98.9218 32.1606C96.9521 32.1606 94.834 36.3284 94.834 42.2478C94.834 44.5144 95.6013 45.5227 96.9407 45.5227C99.0246 45.5227 101.029 40.7132 101.029 35.4686ZM108.185 37.1289C108.185 43.336 103.719 49.5649 96.6084 49.5649C91.2154 49.5649 87.7579 46.4156 87.7579 40.1411C87.7579 33.741 92.5902 28.0728 99.2541 28.0728C104.453 28.0728 108.186 31.3476 108.186 37.1186" fill="white"/>
</svg>
