<svg width="344" height="76" viewBox="0 0 344 76" fill="none" xmlns="http://www.w3.org/2000/svg">
<path fill-rule="evenodd" clip-rule="evenodd" d="M78.0465 5.70007C77.2472 5.70007 76.5977 6.34958 76.5977 7.14896C76.5977 7.94835 77.2472 8.59785 78.0465 8.59785C78.8459 8.59785 79.4954 7.94835 79.4954 7.14896C79.4954 6.34958 78.8459 5.70007 78.0465 5.70007ZM70.0028 7.89836C70.0028 6.94909 70.7522 6.19967 71.7015 6.19967C72.6008 6.19967 73.3002 6.94909 73.3502 7.94833C73.3502 8.84764 72.6008 9.59706 71.7015 9.59706C70.7522 9.59706 70.0028 8.84764 70.0028 7.89836ZM64.9067 7.99827C63.8575 7.99827 62.9582 8.84762 62.9582 9.94678C62.9582 10.996 63.8076 11.8953 64.9067 11.8953C65.9559 11.8953 66.8552 11.0459 66.8552 9.94678C66.8053 8.89758 65.9559 7.99827 64.9067 7.99827ZM55.5638 13.9437C55.5638 12.5947 56.663 11.5455 57.962 11.5455C59.3109 11.5455 60.3601 12.6447 60.3601 13.9437C60.3601 15.2927 59.261 16.3419 57.962 16.3419C56.613 16.3419 55.5638 15.2427 55.5638 13.9437ZM51.8168 17.4411C50.8176 17.4411 49.8683 17.9407 49.3687 18.84C48.8691 19.6893 48.8691 20.7885 49.3687 21.6379C49.8683 22.4872 50.8176 23.0368 51.8168 23.0368C53.3157 22.9868 54.5647 21.7877 54.5647 20.2389C54.5147 18.7401 53.3157 17.491 51.8168 17.4411ZM44.7722 26.584C45.3717 25.5848 46.4709 24.9853 47.6699 24.9853C49.4186 25.0352 50.8675 26.4841 50.8675 28.2328C50.8675 29.9814 49.4686 31.4303 47.6699 31.4803C46.4709 31.5302 45.3717 30.8807 44.7722 29.8815C44.1726 28.8823 44.1726 27.5833 44.7722 26.584ZM46.1711 34.5779C44.0727 34.5779 42.374 36.2766 42.374 38.375C42.374 40.4734 44.0727 42.1721 46.1711 42.1721C48.2695 42.1721 49.9682 40.4734 49.9682 38.375C49.9182 36.2766 48.2695 34.5779 46.1711 34.5779ZM44.7722 46.7685C45.3717 45.7693 46.4709 45.1198 47.6699 45.1698C49.4186 45.2197 50.8675 46.6686 50.8675 48.4173C50.8675 50.1659 49.4686 51.6148 47.6699 51.6648C46.4709 51.7147 45.3717 51.0653 44.7722 50.066C44.1726 49.0668 44.1726 47.7678 44.7722 46.7685ZM108.474 45.1698C107.275 45.1698 106.175 45.7693 105.576 46.7685C104.976 47.7678 104.976 49.0668 105.576 50.066C106.175 51.0652 107.275 51.7147 108.474 51.6648C110.272 51.6148 111.671 50.1659 111.671 48.4173C111.721 46.6686 110.272 45.2197 108.474 45.1698ZM104.326 53.6632C102.778 53.6632 101.528 54.9123 101.528 56.4111C101.528 57.9599 102.778 59.209 104.326 59.209C105.875 59.209 107.124 57.9599 107.124 56.4111C107.124 54.9123 105.875 53.6632 104.326 53.6632ZM100.575 62.6234C100.619 63.9471 99.5822 65.0559 98.2585 65.1C96.9348 65.144 95.826 64.1067 95.782 62.783C95.7379 61.4594 96.7752 60.3506 98.0989 60.3065C99.4225 60.2624 100.531 61.2998 100.575 62.6234ZM91.2366 64.8047C90.1375 64.8047 89.2881 65.6541 89.2881 66.7532C89.2881 67.8524 90.1375 68.7017 91.2366 68.7017C92.3358 68.7017 93.1851 67.8524 93.1851 66.7532C93.1851 65.6541 92.3358 64.8047 91.2366 64.8047ZM82.793 68.8017C82.793 67.9024 83.5424 67.153 84.4417 67.153C85.391 67.153 86.1404 67.9024 86.0905 68.8017C86.0905 69.701 85.341 70.4504 84.4417 70.4504C83.5424 70.4504 82.793 69.701 82.793 68.8017ZM78.0967 68.1021C77.2973 68.1021 76.6478 68.7517 76.6478 69.551C76.6478 70.3504 77.2973 70.9999 78.0967 70.9999C78.896 70.9999 79.5455 70.3504 79.5455 69.551C79.4956 68.7517 78.8461 68.1021 78.0967 68.1021ZM70.0529 68.8017C70.0529 67.9024 70.8023 67.153 71.7016 67.153C72.6009 67.153 73.3503 67.9024 73.3503 68.8017C73.3503 69.701 72.6009 70.4504 71.7016 70.4504C70.8023 70.4504 70.0529 69.701 70.0529 68.8017ZM64.9065 64.7547C64.207 64.7547 63.5575 65.1044 63.2078 65.704C62.858 66.3035 62.858 67.0529 63.2078 67.6525C63.5575 68.252 64.207 68.6018 64.9065 68.6018C65.9557 68.6018 66.855 67.7524 66.855 66.6533C66.805 65.654 65.9557 64.8047 64.9065 64.7547ZM55.8637 61.5073C56.3133 60.7578 57.1127 60.3082 57.9621 60.3082C59.311 60.3082 60.3602 61.4073 60.3602 62.7063C60.3602 64.0553 59.2611 65.1045 57.9621 65.1045C57.0628 65.1045 56.3133 64.6549 55.8637 63.9054C55.414 63.156 55.414 62.2567 55.8637 61.5073ZM51.8169 53.6632C50.2681 53.6632 49.019 54.9123 49.019 56.4611C49.019 58.0099 50.2681 59.259 51.8169 59.259C53.3657 59.259 54.6147 58.0099 54.6147 56.4611C54.5648 54.9123 53.3657 53.6632 51.8169 53.6632ZM82.793 7.8484C82.793 6.94909 83.5424 6.19967 84.4417 6.19967C85.391 6.19967 86.1404 6.94909 86.0905 7.8484C86.0905 8.74771 85.341 9.49714 84.4417 9.49714C83.5424 9.49714 82.793 8.74771 82.793 7.8484ZM91.2364 7.99827C90.5369 7.99827 89.8874 8.34801 89.5377 8.94755C89.1879 9.54709 89.1879 10.2965 89.5377 10.8961C89.8874 11.4956 90.5369 11.8453 91.2364 11.8453C92.2856 11.8453 93.1849 10.996 93.1849 9.89682C93.1849 8.79766 92.3355 7.99827 91.2364 7.99827ZM95.7832 13.9937C95.7832 12.6447 96.8824 11.5955 98.1814 11.5955C99.4804 11.5955 100.58 12.6447 100.58 13.9937C100.58 15.3427 99.4804 16.3919 98.1814 16.3919C96.8324 16.3919 95.7832 15.2927 95.7832 13.9937ZM104.326 17.4411C102.778 17.4411 101.528 18.6901 101.528 20.2389C101.528 21.7877 102.778 23.0368 104.326 23.0368C105.875 23.0368 107.124 21.7877 107.124 20.2389C107.124 18.6901 105.875 17.4411 104.326 17.4411ZM105.576 26.584C106.175 25.5848 107.275 24.9853 108.474 24.9853C110.272 24.9853 111.671 26.4341 111.671 28.2328C111.671 29.9814 110.272 31.4303 108.474 31.4803C107.275 31.5302 106.175 30.8807 105.576 29.8815C104.976 28.8823 104.976 27.5833 105.576 26.584ZM93.4851 43.3212C92.9356 43.3212 92.436 43.571 92.1861 44.0207C91.9363 44.4703 91.9363 45.0699 92.1861 45.5195C92.436 45.9692 92.9356 46.2689 93.4851 46.219C94.2845 46.169 94.8841 45.5195 94.8841 44.7701C94.934 44.0207 94.2845 43.3712 93.4851 43.3212ZM88.5384 49.4665C88.7882 49.0168 89.2878 48.767 89.8374 48.767C90.6368 48.817 91.2363 49.4665 91.2363 50.2159C91.2363 50.9653 90.6368 51.6148 89.8374 51.6648C89.3377 51.7148 88.7882 51.415 88.5384 50.9653C88.2886 50.5157 88.2886 49.9161 88.5384 49.4665ZM84.3917 52.2643C83.8421 52.2643 83.2925 52.5641 82.9928 53.0637C82.693 53.5633 82.693 54.1628 82.9928 54.6625C83.2925 55.1621 83.7922 55.4618 84.3917 55.4618C85.291 55.4618 85.9905 54.7624 85.9905 53.8631C85.9905 52.9638 85.291 52.2643 84.3917 52.2643ZM75.8482 55.3619C75.8482 54.1629 76.7975 53.2136 77.9966 53.2136C79.1457 53.2136 80.095 54.1629 80.1449 55.3619C80.1449 56.561 79.1957 57.5103 77.9966 57.5103C76.7975 57.5103 75.8482 56.561 75.8482 55.3619ZM71.5516 51.9146C70.2026 51.9146 69.1035 53.0137 69.1035 54.3627C69.1035 55.7117 70.2026 56.8108 71.5516 56.8108C72.9005 56.8108 73.9997 55.7117 73.9997 54.3627C73.9997 53.0137 72.9005 51.9146 71.5516 51.9146ZM63.058 50.5157C63.058 49.0169 64.2571 47.8178 65.7559 47.8178C67.2548 47.8178 68.4539 49.0169 68.4539 50.5157C68.4539 52.0146 67.2548 53.2136 65.7559 53.2136C64.2571 53.2136 63.058 52.0146 63.058 50.5157ZM61.9091 42.322C60.66 42.322 59.6608 43.3212 59.6608 44.5702C59.6608 45.8193 60.66 46.8185 61.9091 46.8185C63.1581 46.8185 64.1573 45.8193 64.1573 44.5702C64.2073 43.3712 63.1581 42.322 61.9091 42.322ZM59.2608 38.0753C59.2608 37.126 60.0602 36.3266 61.0094 36.3266C62.0087 36.3266 62.7581 37.076 62.7581 38.0753C62.7581 39.0245 61.9587 39.8239 61.0094 39.8239C60.0602 39.8239 59.2608 39.0245 59.2608 38.0753ZM62.5584 30.4311C61.759 30.4311 61.1095 31.0806 61.1095 31.88C61.1095 32.6794 61.759 33.3289 62.5584 33.3289C63.3578 33.3289 64.0073 32.6794 64.0073 31.88C64.0572 31.0806 63.3578 30.4311 62.5584 30.4311ZM64.9569 25.7347C65.2067 25.285 65.7064 25.0352 66.2559 25.0352C67.0054 25.0352 67.6549 25.6847 67.7048 26.4841C67.7048 27.2835 67.0553 27.933 66.2559 27.933C65.7563 27.9829 65.2067 27.6832 64.9569 27.2335C64.7071 26.7839 64.7071 26.1843 64.9569 25.7347ZM71.6516 21.2381C70.7523 21.2381 70.0529 21.9376 70.0529 22.8369C70.0529 23.7362 70.7523 24.4357 71.6516 24.4357C72.551 24.4357 73.2504 23.7362 73.2504 22.8369C73.2504 21.9875 72.551 21.2381 71.6516 21.2381ZM78.1695 19.1649C79.3552 19.2105 80.2795 20.2085 80.2339 21.3942C80.1884 22.5799 79.1903 23.5042 78.0046 23.4586C76.819 23.4131 75.8947 22.415 75.9402 21.2293C75.9858 20.0437 76.9839 19.1194 78.1695 19.1649ZM84.4917 19.8892C83.1427 19.8892 82.0436 20.9883 82.0436 22.3373C82.0436 23.6862 83.1427 24.7854 84.4917 24.7854C85.8407 24.7854 86.9398 23.6862 86.9398 22.3373C86.9398 20.9883 85.8407 19.8892 84.4917 19.8892ZM87.5893 26.1843C87.5893 24.6854 88.7884 23.4864 90.2872 23.4864C91.7861 23.4864 92.9851 24.6854 92.9851 26.1843C92.9851 27.6831 91.7861 28.8822 90.2872 28.8822C88.7884 28.8822 87.5893 27.6831 87.5893 26.1843ZM94.1345 29.8315C92.8855 29.8315 91.8863 30.8308 91.8863 32.0798C91.8863 33.3289 92.8855 34.3281 94.1345 34.3281C95.3836 34.3281 96.3828 33.3289 96.3828 32.0798C96.3828 30.8308 95.3836 29.8315 94.1345 29.8315ZM89.5879 41.1228C89.5879 41.8679 88.984 42.4718 88.2389 42.4718C87.4939 42.4718 86.89 41.8679 86.89 41.1228C86.89 40.3778 87.4939 39.7739 88.2389 39.7739C88.984 39.7739 89.5879 40.3778 89.5879 41.1228ZM85.591 43.9707C84.4918 43.9707 83.5925 44.87 83.5925 45.9691C83.5925 47.0683 84.4918 47.9676 85.591 47.9676C86.6902 47.9676 87.5895 47.0683 87.5895 45.9691C87.6394 44.87 86.7401 43.9707 85.591 43.9707ZM78.3466 48.767C78.3466 47.6179 79.2959 46.6686 80.445 46.6686C81.5941 46.6686 82.5434 47.6179 82.5434 48.767C82.5434 49.9162 81.5941 50.8654 80.445 50.8654C79.2959 50.8654 78.3466 49.9162 78.3466 48.767ZM74.3494 46.5187C73.6999 46.5187 73.0504 46.8684 72.7507 47.468C72.4009 48.0675 72.4009 48.767 72.7507 49.3166C73.1004 49.9161 73.6999 50.2658 74.3494 50.2658C75.3986 50.2658 76.198 49.4165 76.198 48.4173C76.248 47.3681 75.3986 46.5187 74.3494 46.5187ZM68.5039 44.8201C68.5039 44.0706 69.1035 43.4711 69.8529 43.4711C70.6023 43.4711 71.2518 44.1206 71.2019 44.8201C71.2019 45.5695 70.6023 46.169 69.8529 46.169C69.1035 46.169 68.5039 45.5695 68.5039 44.8201ZM68.0544 39.5241C67.5049 39.5241 67.0552 39.9738 67.0552 40.5233C67.0552 41.0729 67.5049 41.5226 68.0544 41.5226C68.604 41.5226 69.0537 41.0729 69.0537 40.5233C69.0537 39.9738 68.604 39.5241 68.0544 39.5241ZM66.6055 35.727C66.6055 34.9776 67.2051 34.3781 67.9545 34.3781C68.7039 34.3781 69.3035 34.9776 69.3035 35.727C69.3035 36.4764 68.7039 37.076 67.9545 37.076C67.2051 37.076 66.6055 36.4764 66.6055 35.727ZM70.6022 28.8324C69.503 28.8324 68.6037 29.7317 68.6037 30.8308C68.6037 31.93 69.503 32.8293 70.6022 32.8293C71.7013 32.8293 72.6006 31.93 72.6006 30.8308C72.6006 29.7317 71.7013 28.8324 70.6022 28.8324ZM73.6501 28.0329C73.6501 26.8838 74.5994 25.9345 75.7485 25.9345C76.8976 25.9345 77.8469 26.8838 77.8469 28.0329C77.8469 29.182 76.8976 30.1313 75.7485 30.1313C74.5994 30.1313 73.6501 29.182 73.6501 28.0329ZM81.8435 26.584C81.144 26.584 80.5445 26.9338 80.1948 27.4834C79.845 28.0829 79.845 28.7824 80.1948 29.3819C80.5445 29.9814 81.194 30.3312 81.8435 30.2812C82.8427 30.2312 83.6421 29.4319 83.6421 28.4326C83.6421 27.4334 82.8427 26.634 81.8435 26.584ZM84.9415 31.9299C84.9415 31.1805 85.541 30.581 86.2905 30.581C87.0898 30.581 87.6894 31.1805 87.6394 31.9299C87.6394 32.6794 87.0399 33.2789 86.2905 33.2789C85.541 33.2789 84.9415 32.6794 84.9415 31.9299ZM88.189 35.3274C87.6394 35.3274 87.1897 35.777 87.1897 36.3266C87.1897 36.8762 87.6394 37.3258 88.189 37.3258C88.7386 37.3258 89.1882 36.8762 89.1882 36.3266C89.1882 35.777 88.7386 35.3274 88.189 35.3274ZM93.2849 38.6248C93.2849 37.6755 94.0843 36.8761 95.0335 36.8761C95.9828 36.8761 96.7822 37.6755 96.7822 38.6248C96.7822 39.5741 95.9828 40.3735 95.0335 40.3735C94.0843 40.3735 93.2849 39.5741 93.2849 38.6248ZM102.278 39.0245C101.229 39.0245 100.43 39.8738 100.43 40.873C100.43 41.9222 101.279 42.7216 102.278 42.7216C103.327 42.7216 104.127 41.8723 104.127 40.873C104.127 39.8738 103.327 39.0245 102.278 39.0245ZM98.6811 47.3182C98.6811 46.3689 99.4805 45.5695 100.43 45.5695C101.429 45.5695 102.178 46.3689 102.178 47.3182C102.178 48.2674 101.379 49.0668 100.43 49.0668C99.4805 49.0668 98.6811 48.2674 98.6811 47.3182ZM97.2821 51.0653C96.4827 51.0653 95.7832 51.7148 95.7832 52.5641C95.7832 53.3635 96.4327 54.063 97.2821 54.063C98.0815 54.063 98.731 53.3635 98.731 52.5641C98.731 51.7647 98.0815 51.1152 97.2821 51.0653ZM92.3356 55.8116C92.5854 55.4119 93.035 55.1621 93.4847 55.1621C94.1842 55.1621 94.7837 55.7617 94.7837 56.4611C94.7837 57.2106 94.1842 57.7601 93.4847 57.7601C92.9851 57.7601 92.5854 57.5103 92.3356 57.1106C92.0858 56.711 92.0858 56.2113 92.3356 55.8116ZM89.488 58.1598C88.8884 58.1598 88.3888 58.6594 88.3888 59.259C88.3888 59.8585 88.8884 60.3581 89.488 60.3581C90.0875 60.3581 90.5871 59.8585 90.5871 59.259C90.5871 58.6594 90.0875 58.1598 89.488 58.1598ZM83.6422 61.1575C83.6422 60.4081 84.2417 59.8585 84.9412 59.8585C85.6407 59.8585 86.1902 60.4081 86.2402 61.1575C86.2402 61.907 85.6407 62.4565 84.9412 62.4565C84.1918 62.4565 83.6422 61.857 83.6422 61.1575ZM79.5953 60.7078C78.796 60.7078 78.0965 61.3573 78.0965 62.2067C78.0965 63.0061 78.746 63.7055 79.5953 63.7055C80.3947 63.7055 81.0942 63.056 81.0942 62.2067C81.0442 61.3573 80.3947 60.7078 79.5953 60.7078ZM71.6018 62.0068C71.6018 60.9577 72.4512 60.1083 73.5004 60.1083C74.5496 60.1083 75.3989 60.9577 75.3989 62.0068C75.3989 63.056 74.5496 63.9054 73.5004 63.9054C72.4512 63.9054 71.6018 63.056 71.6018 62.0068ZM67.0552 57.8101C65.8062 57.8101 64.8069 58.8093 64.8069 60.0583C64.8069 61.3074 65.8062 62.3066 67.0552 62.3066C68.3043 62.3066 69.3035 61.3074 69.3035 60.0583C69.3535 58.8093 68.3043 57.8101 67.0552 57.8101ZM59.061 54.8124C59.5606 54.013 60.4599 53.5134 61.4092 53.5134C62.8581 53.5633 64.0072 54.7624 64.0072 56.1613C64.0072 57.6102 62.8581 58.7593 61.4092 58.8093C60.4599 58.8593 59.5606 58.3596 59.061 57.5103C58.5614 56.6609 58.5614 55.6617 59.061 54.8124ZM56.663 47.1183C55.0642 47.1183 53.7652 48.4173 53.7652 50.0161C53.7652 51.6148 55.0642 52.9139 56.663 52.9139C58.2617 52.9139 59.5608 51.6148 59.5608 50.0161C59.5608 48.3673 58.2617 47.1183 56.663 47.1183ZM54.1485 40.4048C55.4146 40.4948 56.368 41.5941 56.278 42.8602C56.1881 44.1263 55.0887 45.0798 53.8226 44.9898C52.5565 44.8998 51.6031 43.8005 51.6931 42.5344C51.783 41.2683 52.8824 40.3148 54.1485 40.4048ZM55.6889 35.8893C55.7454 34.8699 54.9647 33.9978 53.9453 33.9413C52.9259 33.8848 52.0537 34.6655 51.9973 35.6849C51.9408 36.7043 52.7215 37.5765 53.7409 37.6329C54.7603 37.6894 55.6325 36.9087 55.6889 35.8893ZM53.9652 29.3319C53.9652 28.3827 54.7646 27.5833 55.7139 27.5833C56.6631 27.5833 57.4625 28.3827 57.4625 29.3319C57.4625 30.2812 56.6631 31.0806 55.7139 31.0806C54.7646 31.0806 53.9652 30.2812 53.9652 29.3319ZM58.8615 22.6371C58.3119 22.6371 57.8123 22.8869 57.5625 23.3865C57.3127 23.8361 57.3127 24.4357 57.5625 24.8853C57.8123 25.335 58.3619 25.6348 58.8615 25.6348C59.6609 25.6348 60.3104 24.9353 60.3104 24.1359C60.3104 23.2866 59.6609 22.6371 58.8615 22.6371ZM61.3596 20.2389C61.3596 19.4895 61.9592 18.9399 62.6586 18.9399C63.3581 18.9399 63.9576 19.5394 63.9576 20.2389C63.9576 20.9883 63.408 21.5379 62.6586 21.5379C61.9092 21.5379 61.3596 20.9384 61.3596 20.2389ZM66.6555 16.3419C66.056 16.3419 65.5564 16.8415 65.5564 17.441C65.5564 18.0406 66.056 18.5402 66.6555 18.5402C67.2551 18.5402 67.7547 18.0406 67.7547 17.441C67.7547 16.7915 67.2551 16.3419 66.6555 16.3419ZM69.903 15.5925C69.903 14.843 70.5025 14.2935 71.202 14.2935C71.9015 14.2935 72.501 14.843 72.501 15.5925C72.501 16.3419 71.9015 16.8915 71.202 16.8915C70.4526 16.8915 69.903 16.2919 69.903 15.5925ZM76.5478 12.9944C75.9982 12.9944 75.4986 13.2442 75.2488 13.7439C74.999 14.1935 74.999 14.7931 75.2488 15.2427C75.4986 15.6924 76.0482 15.9921 76.5478 15.9921C77.3472 15.9921 77.9967 15.2927 77.9967 14.4933C77.9967 13.6939 77.3472 13.0444 76.5478 12.9944ZM80.9442 13.6939C81.2939 13.0943 81.9434 12.7446 82.6429 12.7446C83.6921 12.7446 84.5414 13.594 84.5414 14.6432C84.5414 15.6924 83.6921 16.5917 82.6429 16.5917C81.9434 16.5917 81.2939 16.2419 80.9442 15.6424C80.5944 15.0429 80.5944 14.2934 80.9442 13.6939ZM88.8885 14.1935C87.6394 14.1935 86.5902 15.1927 86.5902 16.4917C86.5902 17.7408 87.5894 18.79 88.8885 18.79C90.1375 18.79 91.1867 17.7908 91.1867 16.4917C91.1867 15.2427 90.1375 14.1935 88.8885 14.1935ZM92.1359 20.4387C92.1359 18.9898 93.285 17.7907 94.7839 17.7907C96.2328 17.7907 97.4319 18.9898 97.4319 20.4387C97.4319 21.8876 96.2827 23.0867 94.7839 23.0867C93.335 23.0867 92.1359 21.8876 92.1359 20.4387ZM99.4801 23.7861C98.4309 23.7861 97.4817 24.3357 96.9321 25.235C96.3825 26.1343 96.3825 27.2335 96.9321 28.1328C97.4817 29.0321 98.4309 29.5817 99.4801 29.5817C101.079 29.5317 102.328 28.2827 102.328 26.6839C102.278 25.1351 101.029 23.8361 99.4801 23.7861ZM100.13 32.8292C100.53 32.1298 101.329 31.7301 102.128 31.7301C103.377 31.7801 104.327 32.7793 104.327 33.9784C104.327 35.1774 103.377 36.1767 102.128 36.2266C101.329 36.2766 100.53 35.827 100.13 35.1275C99.7302 34.428 99.7302 33.5287 100.13 32.8292ZM113.77 38.325C113.77 40.4234 112.071 42.1221 109.972 42.1221C107.874 42.1221 106.175 40.4234 106.175 38.325C106.175 36.2266 107.874 34.5279 109.972 34.5279C112.071 34.5778 113.77 36.2765 113.77 38.325ZM295.48 37.3758C298.678 38.6748 300.726 40.5733 300.726 44.1706C300.726 47.9677 298.378 52.0645 290.734 51.9646C287.386 51.9646 283.989 51.3651 282.19 50.9654C281.84 50.9154 281.491 50.6156 281.491 50.216V47.518C281.491 47.1183 281.79 46.8186 282.19 46.8186H282.29L282.521 46.8495C284.131 47.0655 287.505 47.518 290.834 47.518C294.231 47.518 295.23 46.3189 295.23 44.1206C295.23 41.914 291.035 40.4532 287.644 39.2726C286.735 38.9563 285.885 38.6601 285.188 38.375C281.89 37.0261 280.741 34.4281 280.741 31.7801C280.741 27.5833 284.089 24.5856 291.083 24.5856C294.681 24.5856 297.978 25.2851 299.277 25.5848C299.677 25.6348 299.977 25.9346 299.977 26.2843V29.0822C299.977 29.4819 299.727 29.7816 299.327 29.7816H299.227C298.606 29.7182 297.975 29.6419 297.325 29.5634C295.415 29.3325 293.344 29.0822 290.883 29.0822C288.086 29.0822 285.987 30.0814 285.987 31.7801C285.987 33.0291 287.436 34.1783 289.085 34.8278C290.105 35.248 291.306 35.7224 292.644 36.2508L292.646 36.2516L292.649 36.2526C293.537 36.6032 294.484 36.9776 295.48 37.3758ZM226.782 29.2819H219.238V50.9653C219.238 51.365 218.889 51.7147 218.489 51.7147H214.742C214.342 51.7147 213.992 51.365 213.992 50.9653V29.2819H206.448C206.048 29.2819 205.699 29.0321 205.699 28.5825V25.5848C205.699 25.1851 206.048 24.8853 206.448 24.8853H226.782C227.182 24.8853 227.532 25.1851 227.532 25.5848V28.5825C227.532 29.0321 227.182 29.2819 226.782 29.2819ZM202.402 25.6348V41.3727C202.402 49.4165 197.156 52.0145 191.11 52.0145C185.065 52.0145 179.819 49.3666 179.819 41.3228V25.6348C179.819 25.2351 180.169 24.9353 180.568 24.9353H184.315C184.715 24.9353 185.065 25.2351 185.065 25.6348V41.3228C185.065 45.6195 187.063 47.6679 191.11 47.6679C195.157 47.6679 197.156 45.6195 197.156 41.3228V25.6348C197.156 25.2351 197.505 24.9353 197.905 24.9353H201.652C202.052 24.9353 202.402 25.2351 202.402 25.6348ZM236.226 40.0737H248.316C248.716 40.0737 249.066 39.724 249.066 39.3243V36.5764C249.066 36.1767 248.716 35.827 248.316 35.827H236.226V32.3796C236.226 29.232 236.325 29.1321 239.223 29.1321H248.766C249.166 29.1321 249.515 28.7824 249.515 28.3827V25.9845C249.515 25.4349 249.315 25.2851 248.766 25.1851C247.567 24.9853 245.119 24.6356 240.622 24.6356L240.504 24.6356C234.335 24.6352 231.029 24.6351 231.029 32.3796V44.3205C231.029 52.065 234.335 52.0648 240.504 52.0645L240.622 52.0645C245.119 52.0645 247.567 51.7148 248.766 51.5149C249.315 51.465 249.515 51.2651 249.515 50.7156V48.3174C249.515 47.9177 249.166 47.568 248.766 47.568H239.223C236.375 47.568 236.226 47.468 236.226 44.3205V40.0737ZM173.723 40.0737H161.633V44.3205C161.633 47.468 161.782 47.568 164.63 47.568H174.173C174.573 47.568 174.922 47.9177 174.922 48.3174V50.7156C174.922 51.2651 174.723 51.465 174.173 51.5149C172.974 51.7148 170.526 52.0645 166.029 52.0645L165.911 52.0645C159.742 52.0648 156.437 52.065 156.437 44.3205V32.3796C156.437 24.6351 159.742 24.6352 165.911 24.6356L166.029 24.6356C170.526 24.6356 172.974 24.9853 174.173 25.1851C174.723 25.2851 174.922 25.4349 174.922 25.9845V28.3827C174.922 28.7824 174.573 29.1321 174.173 29.1321H164.63C161.732 29.1321 161.633 29.232 161.633 32.3796V35.827H173.723C174.123 35.827 174.473 36.1767 174.473 36.5764V39.3243C174.473 39.724 174.123 40.0737 173.723 40.0737ZM277.594 50.9654L271.698 40.8731C274.796 39.674 276.794 37.4757 276.794 33.4788V33.179C276.794 26.7339 271.448 24.6356 265.603 24.6356C262.855 24.6356 258.608 24.8354 256.66 25.1352C255.91 25.2351 255.461 25.5349 255.461 26.2843V51.0153C255.461 51.415 255.81 51.7647 256.21 51.7647H260.007C260.407 51.7647 260.707 51.415 260.707 51.0153V41.6725C261.556 41.7224 264.604 41.8224 265.603 41.8224H266.452L271.898 50.9654C271.912 50.9891 271.925 51.0132 271.938 51.0373C271.952 51.0634 271.967 51.0897 271.981 51.1159C272.145 51.4204 272.304 51.7148 272.647 51.7148H277.244C277.544 51.7148 277.694 51.5149 277.694 51.2651C277.694 51.1652 277.644 51.0653 277.594 50.9654ZM271.548 33.4788C271.548 36.7762 269.45 37.5257 265.553 37.5257C265.222 37.5257 264.111 37.4997 263.022 37.4742L263.022 37.4742C261.976 37.4497 260.95 37.4257 260.657 37.4257V29.282C261.306 29.1821 264.753 29.1321 265.553 29.1321C269.35 29.1321 271.548 30.3312 271.548 33.179V33.4788ZM146.394 40.8731L152.34 50.9654C152.39 51.0653 152.39 51.1652 152.39 51.2651C152.39 51.5149 152.24 51.7148 151.94 51.7148H147.344C147.001 51.7148 146.842 51.4204 146.677 51.1159C146.65 51.0655 146.622 51.0149 146.594 50.9654L141.148 41.8224H140.299C139.3 41.8224 136.252 41.7224 135.403 41.6725V51.0153C135.403 51.415 135.103 51.7647 134.703 51.7647H130.906C130.506 51.7647 130.157 51.415 130.157 51.0153V26.2843C130.157 25.5349 130.606 25.2351 131.356 25.1352C133.304 24.8354 137.551 24.6356 140.299 24.6356C146.144 24.6356 151.49 26.7339 151.49 33.179V33.4788C151.49 37.4757 149.492 39.674 146.394 40.8731ZM140.349 37.5257C144.196 37.5257 146.294 36.7762 146.294 33.4788V33.179C146.294 30.3312 144.146 29.1321 140.349 29.1321C139.55 29.1321 136.102 29.1821 135.453 29.282V37.4257C135.746 37.4257 136.772 37.4497 137.818 37.4742C138.907 37.4997 140.018 37.5257 140.349 37.5257Z" fill="white"/>
</svg>
